<svg width="18" height="18" viewBox="0 0 18 18" fill="none" xmlns="http://www.w3.org/2000/svg">
<g clip-path="url(#clip0_7_17)">
<path d="M9.53019 17.0302L14.7802 11.7802C14.9168 11.6388 14.9924 11.4493 14.9907 11.2527C14.989 11.056 14.9101 10.8679 14.7711 10.7289C14.632 10.5898 14.4439 10.5109 14.2472 10.5092C14.0506 10.5075 13.8611 10.5831 13.7197 10.7197L9.74994 14.6895L9.74994 1.5C9.74994 1.30109 9.67092 1.11032 9.53027 0.96967C9.38962 0.829017 9.19885 0.75 8.99994 0.75C8.80103 0.75 8.61026 0.829017 8.46961 0.969669C8.32896 1.11032 8.24994 1.30109 8.24994 1.5L8.24994 14.6895L4.28019 10.7197C4.21101 10.6481 4.12825 10.591 4.03675 10.5517C3.94524 10.5124 3.84683 10.4917 3.74725 10.4908C3.64766 10.4899 3.5489 10.5089 3.45673 10.5466C3.36456 10.5843 3.28082 10.64 3.2104 10.7104C3.13998 10.7809 3.08429 10.8646 3.04658 10.9568C3.00887 11.049 2.98989 11.1477 2.99076 11.2473C2.99162 11.3469 3.01231 11.4453 3.05162 11.5368C3.09093 11.6283 3.14806 11.7111 3.21969 11.7802L8.46969 17.0302C8.61034 17.1708 8.80107 17.2498 8.99994 17.2498C9.19881 17.2498 9.38955 17.1708 9.53019 17.0302Z" fill="white"/>
</g>
<defs>
<clipPath id="clip0_7_17">
<rect width="18" height="18" fill="white" transform="translate(18) rotate(90)"/>
</clipPath>
</defs>
</svg>
