<svg width="17.975464" height="18.000000" viewBox="0 0 17.9755 18" fill="none" xmlns="http://www.w3.org/2000/svg" xmlns:xlink="http://www.w3.org/1999/xlink">
	<desc>
			Created with Pixso.
	</desc>
	<defs>
		<clipPath id="clip31_20">
			<rect id="leave 1" rx="-0.500000" width="16.975443" height="17.000000" transform="translate(0.500000 0.500000)" fill="white" fill-opacity="0"/>
		</clipPath>
	</defs>
	<rect id="leave 1" rx="-0.500000" width="16.975443" height="17.000000" transform="translate(0.500000 0.500000)" fill="#FFFFFF" fill-opacity="0"/>
	<g clip-path="url(#clip31_20)">
		<path id="Vector" d="M17.97 11.25C17.97 11.71 17.79 12.14 17.46 12.47L15.91 14.03C15.76 14.17 15.57 14.25 15.38 14.25C15.19 14.25 15 14.17 14.85 14.03C14.56 13.73 14.56 13.26 14.85 12.96L15.82 12L11.23 12C10.82 12 10.48 11.66 10.48 11.25C10.48 10.83 10.82 10.5 11.23 10.5L15.82 10.5L14.85 9.53C14.56 9.23 14.56 8.76 14.85 8.46C15.14 8.17 15.62 8.17 15.91 8.46L17.46 10.02C17.79 10.35 17.97 10.78 17.97 11.25ZM10.48 8.25L10.48 4.5C10.48 3.67 9.81 3 8.98 3L8.98 16.49L9.73 16.49C10.15 16.49 10.48 16.16 10.48 15.74L10.48 14.24C10.48 13.83 10.82 13.49 11.23 13.49C11.64 13.49 11.98 13.83 11.98 14.24L11.98 15.74C11.98 16.98 10.97 17.99 9.73 17.99L2.24 17.99C1 17.99 0 16.98 0 15.74L0 4.21C0 2.43 1.26 0.88 3.01 0.53L5.4 0.05C6.28 -0.12 7.19 0.1 7.89 0.68C8.17 0.91 8.39 1.19 8.56 1.5L8.98 1.5C10.64 1.5 11.98 2.84 11.98 4.5L11.98 8.25C11.98 8.66 11.64 9 11.23 9C10.82 9 10.48 8.66 10.48 8.25ZM6.74 9.37C6.74 8.75 6.23 8.25 5.61 8.25C4.99 8.25 4.49 8.75 4.49 9.37C4.49 9.99 4.99 10.5 5.61 10.5C6.23 10.5 6.74 9.99 6.74 9.37Z" fill="#FFFFFF" fill-opacity="1.000000" fill-rule="nonzero"/>
	</g>
</svg>
