<svg width="93.000000" height="90.000000" viewBox="0 0 93 90" fill="none" xmlns="http://www.w3.org/2000/svg" xmlns:xlink="http://www.w3.org/1999/xlink">
	<desc>
			Created with Pixso.
	</desc>
	<defs>
		<clipPath id="clip125_221">
			<rect id="wallet-arrow 1" rx="-0.416667" width="24.166666" height="24.166666" transform="translate(49.416668 33.416668)" fill="white" fill-opacity="0"/>
		</clipPath>
	</defs>
	<ellipse id="Ellipse 3" cx="46.500000" cy="45.000000" rx="46.500000" ry="45.000000" fill="#9F51FF" fill-opacity="1.000000"/>
	<rect id="wallet-arrow 1" rx="-0.416667" width="24.166666" height="24.166666" transform="translate(49.416668 33.416668)" fill="#FFFFFF" fill-opacity="0"/>
	<g clip-path="url(#clip125_221)">
		<path id="Vector" d="M64.92 37.37C64.52 36.96 64.52 36.3 64.93 35.9L67.23 33.63C68.08 32.78 69.46 32.78 70.32 33.64L72.64 35.9C73.05 36.3 73.06 36.96 72.66 37.37C72.46 37.58 72.18 37.68 71.91 37.68C71.65 37.68 71.39 37.58 71.19 37.39L69.83 36.07L69.83 42.37C69.83 42.95 69.36 43.41 68.79 43.41C68.21 43.41 67.75 42.95 67.75 42.37L67.75 36.05L66.39 37.38C65.98 37.79 65.33 37.78 64.92 37.37L64.92 37.37ZM74 44.45L74 54.87C74 56.59 72.59 58 70.87 58L54.2 58C51.33 58 49 55.66 49 52.79L49 42.37C49 41.45 49.24 40.58 49.66 39.82C49.68 39.78 49.7 39.74 49.73 39.7C50.64 38.18 52.31 37.16 54.2 37.16L61.5 37.16C62.07 37.16 62.54 37.63 62.54 38.2C62.54 38.78 62.07 39.25 61.5 39.25L54.2 39.25C53.28 39.25 52.45 39.65 51.88 40.29C52.46 40.94 53.31 41.33 54.2 41.33L65.66 41.33L65.66 42.37C65.66 44.09 67.06 45.5 68.79 45.5C70.51 45.5 71.91 44.09 71.91 42.37L71.91 41.52C73.12 41.95 74 43.1 74 44.45ZM69.83 49.66C69.83 48.8 69.13 48.1 68.27 48.1C67.4 48.1 66.7 48.8 66.7 49.66C66.7 50.52 67.4 51.22 68.27 51.22C69.13 51.22 69.83 50.52 69.83 49.66Z" fill="#FFFFFF" fill-opacity="1.000000" fill-rule="nonzero"/>
	</g>
</svg>
