<svg width="8" height="5" viewBox="0 0 8 5" fill="none" xmlns="http://www.w3.org/2000/svg">
<path d="M4.01825 4.59195C3.94275 4.59239 3.8679 4.57792 3.79801 4.54937C3.72811 4.52082 3.66453 4.47875 3.61093 4.42558L0.168721 0.983376C0.0606907 0.875346 0 0.728826 0 0.576048C0 0.423271 0.0606907 0.276751 0.168721 0.168721C0.276751 0.0606907 0.423271 0 0.576048 0C0.728826 0 0.875346 0.0606907 0.983376 0.168721L4.01825 3.20934L7.05313 0.174458C7.16288 0.0804705 7.30406 0.0313579 7.44844 0.036935C7.59283 0.042512 7.72979 0.102368 7.83197 0.204541C7.93414 0.306714 7.99399 0.443679 7.99957 0.588065C8.00515 0.732452 7.95604 0.873626 7.86205 0.983376L4.41984 4.42558C4.31299 4.53157 4.16876 4.59132 4.01825 4.59195Z" fill="white"/>
</svg>
