<svg width="93" height="90" viewBox="0 0 93 90" fill="none" xmlns="http://www.w3.org/2000/svg">
<ellipse cx="46.5" cy="45" rx="46.5" ry="45" fill="#9F51FF"/>
<g clip-path="url(#clip0_18_9)">
<path d="M73.5521 34.5866C73.2357 34.2069 72.8395 33.9014 72.3917 33.692C71.944 33.4826 71.4556 33.3744 70.9612 33.375H52.7722L52.725 32.9801C52.6283 32.1593 52.2338 31.4026 51.6163 30.8533C50.9988 30.304 50.2012 30.0004 49.3747 30H49.125C48.8266 30 48.5405 30.1185 48.3295 30.3295C48.1185 30.5405 48 30.8266 48 31.125C48 31.4234 48.1185 31.7095 48.3295 31.9205C48.5405 32.1315 48.8266 32.25 49.125 32.25H49.3747C49.6503 32.25 49.9163 32.3512 50.1222 32.5343C50.3281 32.7174 50.4596 32.9697 50.4919 33.2434L52.0399 46.4059C52.2006 47.7748 52.8583 49.037 53.8881 49.953C54.918 50.869 56.2483 51.375 57.6266 51.375H69.375C69.6734 51.375 69.9595 51.2565 70.1705 51.0455C70.3815 50.8345 70.5 50.5484 70.5 50.25C70.5 49.9516 70.3815 49.6655 70.1705 49.4545C69.9595 49.2435 69.6734 49.125 69.375 49.125H57.6266C56.9303 49.123 56.2516 48.9058 55.6837 48.5029C55.1157 48.1001 54.6862 47.5315 54.4541 46.875H67.8641C69.183 46.8751 70.4599 46.4118 71.4718 45.566C72.4837 44.7202 73.1663 43.5458 73.4002 42.2479L74.2834 37.3496C74.3715 36.8636 74.3517 36.3642 74.2253 35.8867C74.099 35.4092 73.8691 34.9654 73.5521 34.5866Z" fill="white"/>
<path d="M55.875 57C57.1176 57 58.125 55.9926 58.125 54.75C58.125 53.5074 57.1176 52.5 55.875 52.5C54.6324 52.5 53.625 53.5074 53.625 54.75C53.625 55.9926 54.6324 57 55.875 57Z" fill="white"/>
<path d="M67.125 57C68.3676 57 69.375 55.9926 69.375 54.75C69.375 53.5074 68.3676 52.5 67.125 52.5C65.8824 52.5 64.875 53.5074 64.875 54.75C64.875 55.9926 65.8824 57 67.125 57Z" fill="white"/>
</g>
<defs>
<clipPath id="clip0_18_9">
<rect width="27" height="27" fill="white" transform="translate(48 30)"/>
</clipPath>
</defs>
</svg>
