<svg width="20.000000" height="20.000000" viewBox="0 0 20 20" fill="none" xmlns="http://www.w3.org/2000/svg" xmlns:xlink="http://www.w3.org/1999/xlink">
	<desc>
			Created with Pixso.
	</desc>
	<defs>
		<clipPath id="clip34_197">
			<rect id="arrows-from-line 1" rx="-0.019531" width="19.960938" height="19.960938" transform="translate(0.019531 0.019531)" fill="white" fill-opacity="0"/>
		</clipPath>
	</defs>
	<rect id="arrows-from-line 1" rx="-0.019531" width="19.960938" height="19.960938" transform="translate(0.019531 0.019531)" fill="#FFFFFF" fill-opacity="0"/>
	<g clip-path="url(#clip34_197)">
		<path id="Vector" d="M20 10C20 10.46 19.62 10.83 19.16 10.83L0.83 10.83C0.37 10.83 0 10.46 0 10C0 9.53 0.37 9.16 0.83 9.16L19.16 9.16C19.62 9.16 20 9.53 20 10ZM7.25 4.41L9.16 2.5L9.16 6.66C9.16 7.12 9.54 7.5 10 7.5C10.46 7.5 10.83 7.12 10.83 6.66L10.83 2.5L12.74 4.41C12.9 4.57 13.12 4.65 13.33 4.65C13.54 4.65 13.76 4.57 13.92 4.41C14.24 4.08 14.24 3.55 13.92 3.23L11.17 0.48C10.52 -0.17 9.47 -0.17 8.82 0.48L6.07 3.23C5.75 3.55 5.75 4.08 6.07 4.41C6.4 4.73 6.92 4.73 7.25 4.41ZM12.74 15.58L10.83 17.5L10.83 13.33C10.83 12.87 10.46 12.5 10 12.5C9.54 12.5 9.16 12.87 9.16 13.33L9.16 17.5L7.25 15.58C6.92 15.26 6.4 15.26 6.07 15.58C5.75 15.91 5.75 16.44 6.07 16.76L8.82 19.51C9.14 19.83 9.57 19.99 10 19.99C10.42 19.99 10.85 19.83 11.17 19.51L13.92 16.76C14.24 16.44 14.24 15.91 13.92 15.58C13.59 15.26 13.07 15.26 12.74 15.58Z" fill="#FFFFFF" fill-opacity="1.000000" fill-rule="nonzero"/>
	</g>
</svg>
