<svg width="38.113632" height="38.113647" viewBox="0 0 38.1136 38.1136" fill="none" xmlns="http://www.w3.org/2000/svg" xmlns:xlink="http://www.w3.org/1999/xlink">
	<desc>
			Created with Pixso.
	</desc>
	<defs>
		<radialGradient gradientTransform="translate(19.0568 19.0568) rotate(90) scale(27.5265 27.5265)" cx="0.000000" cy="0.000000" r="1.000000" id="paint_radial_43_115_0" gradientUnits="userSpaceOnUse">
			<stop stop-color="#3839D5"/>
			<stop offset="1.000000" stop-color="#8910E9"/>
		</radialGradient>
	</defs>
	<circle id="Ellipse 19" cx="19.056816" cy="19.056763" r="19.056818" fill="url(#paint_radial_43_115_0)" fill-opacity="1.000000"/>
	<path id="Vector" d="M25.53 12.99C23.82 11.45 21.51 10.75 19.18 11.07C15.74 11.55 13 14.37 12.66 17.76C12.51 19.32 12.85 20.86 13.64 22.21C13.85 22.56 13.83 22.98 13.61 23.29C13.2 23.84 12.46 24.36 11.35 24.86C11.09 24.98 10.95 25.26 11.01 25.53C11.07 25.8 11.32 26 11.6 26L20.11 26C24.26 26 27.71 22.92 27.98 19C28.13 16.73 27.24 14.54 25.53 12.99Z" fill="#FFFFFF" fill-opacity="1.000000" fill-rule="nonzero"/>
</svg>
