<svg width="20.000000" height="20.000000" viewBox="0 0 20 20" fill="none" xmlns="http://www.w3.org/2000/svg" xmlns:xlink="http://www.w3.org/1999/xlink">
	<desc>
			Created with Pixso.
	</desc>
	<defs>
		<clipPath id="clip34_193">
			<rect id="cheap-dollar 1" rx="-0.416667" width="19.166666" height="19.166666" transform="translate(0.416667 0.416667)" fill="white" fill-opacity="0"/>
		</clipPath>
	</defs>
	<rect id="cheap-dollar 1" rx="-0.416667" width="19.166666" height="19.166666" transform="translate(0.416667 0.416667)" fill="#FFFFFF" fill-opacity="0"/>
	<g clip-path="url(#clip34_193)">
		<path id="Vector" d="M19.5 16.19L16.17 19.51C15.85 19.83 15.42 20 15 20C14.57 20 14.14 19.83 13.82 19.51L10.48 16.17L11.66 15L14.16 17.5L14.18 0L15.85 0L15.83 17.51L18.33 15L19.5 16.19ZM8.13 16.17L8.6 16.64C8.51 16.65 8.42 16.66 8.33 16.66C3.73 16.66 0 12.92 0 8.33C0 3.73 3.73 0 8.33 0C9.85 0 11.27 0.41 12.5 1.12L12.5 13.47L11.66 12.64L8.13 16.17ZM7.5 12.5L7.5 13.33L9.16 13.33L9.16 12.5C10.54 12.5 11.66 11.37 11.66 10C11.66 8.86 10.85 7.9 9.73 7.72L7.2 7.29C6.89 7.24 6.66 6.98 6.66 6.66C6.66 6.2 7.03 5.83 7.49 5.83L9.16 5.83C9.62 5.83 9.99 6.2 9.99 6.66L11.66 6.66C11.66 5.28 10.54 4.16 9.16 4.16L9.16 3.33L7.49 3.33L7.49 4.16C6.12 4.16 4.99 5.28 4.99 6.66C4.99 7.79 5.81 8.75 6.92 8.94L9.46 9.36C9.77 9.41 10 9.68 10 10C10 10.45 9.62 10.83 9.16 10.83L7.5 10.83C7.04 10.83 6.66 10.45 6.66 10L5 10C5 11.37 6.12 12.5 7.5 12.5Z" fill="#FFFFFF" fill-opacity="1.000000" fill-rule="nonzero"/>
	</g>
</svg>
