<svg width="15.000000" height="15.000000" viewBox="0 0 15 15" fill="none" xmlns="http://www.w3.org/2000/svg" xmlns:xlink="http://www.w3.org/1999/xlink">
	<desc>
			Created with Pixso.
	</desc>
	<defs>
		<clipPath id="clip27_631">
			<rect id="link-alt (1) 1" rx="-0.500000" width="14.000000" height="14.000000" transform="translate(0.500000 0.500000)" fill="white" fill-opacity="0"/>
		</clipPath>
	</defs>
	<rect id="link-alt (1) 1" rx="-0.500000" width="14.000000" height="14.000000" transform="translate(0.500000 0.500000)" fill="#FFFFFF" fill-opacity="0"/>
	<g clip-path="url(#clip27_631)">
		<path id="Vector" d="M4.89 10.1C4.75 9.96 4.61 9.8 4.49 9.63C4.29 9.36 4.35 8.96 4.63 8.76C4.91 8.56 5.3 8.62 5.5 8.9C5.58 9.01 5.67 9.12 5.78 9.22C6.28 9.72 6.94 10 7.65 10C8.36 10 9.03 9.72 9.53 9.22L12.97 5.78C14 4.74 14 3.06 12.97 2.02C11.93 0.99 10.25 0.99 9.21 2.02L8.55 2.68C8.31 2.93 7.91 2.93 7.67 2.68C7.42 2.44 7.42 2.04 7.67 1.8L8.33 1.14C9.85 -0.38 12.33 -0.38 13.85 1.14C15.38 2.66 15.38 5.14 13.85 6.66L10.42 10.1C9.68 10.84 8.7 11.25 7.65 11.25C6.61 11.25 5.63 10.84 4.89 10.1ZM3.9 15C4.95 15 5.93 14.59 6.67 13.85L7.33 13.19C7.57 12.95 7.57 12.55 7.33 12.31C7.08 12.06 6.69 12.06 6.44 12.31L5.78 12.97C5.28 13.47 4.61 13.75 3.9 13.75C3.19 13.75 2.53 13.47 2.02 12.97C1.52 12.47 1.25 11.8 1.25 11.09C1.25 10.38 1.52 9.71 2.02 9.21L5.46 5.77C5.96 5.27 6.63 5 7.34 5C8.05 5 8.72 5.27 9.22 5.77C9.32 5.87 9.41 5.98 9.49 6.09C9.69 6.37 10.08 6.43 10.36 6.23C10.64 6.03 10.71 5.64 10.5 5.36C10.38 5.19 10.25 5.04 10.1 4.89C9.36 4.15 8.38 3.75 7.34 3.75C6.3 3.75 5.32 4.15 4.58 4.89L1.14 8.33C0.4 9.06 0 10.05 0 11.09C0 12.13 0.4 13.11 1.14 13.85C1.88 14.59 2.86 15 3.9 15Z" fill="#FFFFFF" fill-opacity="1.000000" fill-rule="nonzero"/>
	</g>
</svg>
