<svg width="20.000000" height="20.000000" viewBox="0 0 20 20" fill="none" xmlns="http://www.w3.org/2000/svg" xmlns:xlink="http://www.w3.org/1999/xlink">
	<desc>
			Created with Pixso.
	</desc>
	<defs>
		<clipPath id="clip125_282">
			<rect id="free-icon-credit-card-7710452 1" rx="-0.500000" width="19.000000" height="19.000000" transform="translate(0.500000 0.500000)" fill="white" fill-opacity="0"/>
		</clipPath>
	</defs>
	<rect id="free-icon-credit-card-7710452 1" rx="-0.500000" width="19.000000" height="19.000000" transform="translate(0.500000 0.500000)" fill="#FFFFFF" fill-opacity="0"/>
	<g clip-path="url(#clip125_282)">
		<path id="Vector" d="M0 4.5C0 3.67 0.67 3 1.5 3L18.5 3C19.32 3 20 3.67 20 4.5L20 6L0 6L0 4.5Z" fill="#757575" fill-opacity="1.000000" fill-rule="nonzero"/>
		<path id="Vector" d="M0 8L0 15.5C0 16.32 0.67 17 1.5 17L18.5 17C19.32 17 20 16.32 20 15.5L20 8L0 8ZM7 12L2 12L2 10L7 10L7 12Z" fill="#757575" fill-opacity="1.000000" fill-rule="evenodd"/>
	</g>
</svg>
