<svg width="20" height="17" viewBox="0 0 20 17" fill="none" xmlns="http://www.w3.org/2000/svg">
<path d="M19.7811 5.376C19.7713 5.31292 19.7513 5.25116 19.7269 5.19171C19.7215 5.17884 19.7215 5.16573 19.7157 5.15268C19.715 5.15195 19.7139 5.1505 19.7135 5.14978C19.7135 5.14833 19.7128 5.1476 19.7121 5.14669L17.5235 0.49963C17.5184 0.488936 17.509 0.479329 17.5032 0.468453C17.4956 0.455401 17.4931 0.43945 17.4847 0.42652C17.468 0.398242 17.4451 0.376248 17.4255 0.351052C17.4056 0.325131 17.3874 0.297156 17.3653 0.274195C17.3326 0.240117 17.2952 0.211054 17.2572 0.182716C17.2332 0.163865 17.2107 0.143019 17.1846 0.127732C17.1404 0.101086 17.0925 0.0820533 17.0438 0.0638662C17.0195 0.0546216 16.996 0.0404828 16.9705 0.0334134C16.8951 0.0121448 16.8167 0 16.7354 0H9.84876H3.83736C3.76081 0 3.68661 0.0106947 3.61441 0.0295464C3.58921 0.0362533 3.56619 0.0493649 3.5413 0.0578844C3.49707 0.0745609 3.45169 0.0891226 3.41018 0.112868C3.38365 0.128155 3.3619 0.148578 3.33719 0.165315C3.3016 0.190511 3.2648 0.214619 3.2332 0.245133C3.21091 0.267066 3.19314 0.292987 3.17332 0.317699C3.14994 0.345131 3.12257 0.369965 3.10348 0.401142L0.131314 5.04833C0.120257 5.06645 0.115 5.087 0.10497 5.10621C0.0964503 5.12144 0.0823115 5.13449 0.0748796 5.15117C0.0670851 5.16863 0.0667226 5.18694 0.0592907 5.20361C0.0433392 5.24621 0.0306506 5.28869 0.0206205 5.33279C0.0131886 5.36778 0.00684429 5.40204 0.00321896 5.43654C-0.000950164 5.48004 -0.000587631 5.52343 0.00158756 5.56735C0.00430656 5.60312 0.00684429 5.63829 0.0124635 5.67309C0.020258 5.71587 0.0337321 5.75599 0.0473271 5.7972C0.0596532 5.83224 0.0707104 5.86723 0.0872661 5.90028C0.0927041 5.9117 0.0950605 5.92475 0.100499 5.93653C0.116087 5.96553 0.139108 5.98825 0.158202 6.01436C0.173428 6.03701 0.182673 6.06082 0.200074 6.08112L9.18339 16.6917C9.33831 16.8745 9.57051 17.0044 9.80199 16.9978C9.80489 16.9978 9.80785 16.9993 9.80979 16.9993C9.82272 17 9.83504 17 9.84809 17C9.84846 17 9.84846 17 9.84846 17C9.84846 17 9.84918 17 9.84991 17C9.92755 17 10.0037 16.9855 10.077 16.9659C10.0988 16.959 10.1184 16.9521 10.1402 16.9438C10.1943 16.925 10.2469 16.8996 10.2969 16.8698C10.3136 16.86 10.3314 16.8502 10.3477 16.8393C10.4069 16.7983 10.4623 16.7511 10.5103 16.6942L19.5858 6.08384C19.5974 6.07006 19.604 6.05339 19.6141 6.03883C19.6286 6.02052 19.6468 6.00529 19.6591 5.98457C19.6722 5.96408 19.6787 5.94106 19.6896 5.91913C19.7049 5.89103 19.7193 5.8627 19.7306 5.83224C19.7477 5.78801 19.7593 5.74312 19.7695 5.69817C19.776 5.66765 19.7833 5.63865 19.7861 5.6082C19.7919 5.55811 19.7898 5.50929 19.7861 5.45962C19.784 5.43025 19.7854 5.40282 19.7811 5.376Z" fill="url(#paint0_radial_23_612)"/>
<defs>
<radialGradient id="paint0_radial_23_612" cx="0" cy="0" r="1" gradientUnits="userSpaceOnUse" gradientTransform="translate(9.89486 8.5) rotate(90) scale(12.2778 14.2926)">
<stop stop-color="#3839D5"/>
<stop offset="1" stop-color="#8910E9"/>
</radialGradient>
</defs>
</svg>
