<svg width="19.789795" height="17.000000" viewBox="0 0 19.7898 17" fill="none" xmlns="http://www.w3.org/2000/svg" xmlns:xlink="http://www.w3.org/1999/xlink">
	<desc>
			Created with Pixso.
	</desc>
	<defs>
		<radialGradient gradientTransform="translate(9.89486 8.5) rotate(90) scale(12.2778 14.2926)" cx="0.000000" cy="0.000000" r="1.000000" id="paint_radial_23_551_0" gradientUnits="userSpaceOnUse">
			<stop stop-color="#3839D5"/>
			<stop offset="1.000000" stop-color="#8910E9"/>
		</radialGradient>
	</defs>
	<path id="Vector" d="M19.78 5.37C19.77 5.31 19.75 5.25 19.72 5.19C19.72 5.17 19.72 5.16 19.71 5.15C19.71 5.15 19.71 5.15 19.71 5.14C19.71 5.14 19.71 5.14 19.71 5.14L17.52 0.49C17.51 0.48 17.5 0.47 17.5 0.46C17.49 0.45 17.49 0.43 17.48 0.42C17.46 0.39 17.44 0.37 17.42 0.35C17.4 0.32 17.38 0.29 17.36 0.27C17.33 0.24 17.29 0.21 17.25 0.18C17.23 0.16 17.21 0.14 17.18 0.12C17.14 0.1 17.09 0.08 17.04 0.06C17.01 0.05 16.99 0.04 16.97 0.03C16.89 0.01 16.81 0 16.73 0L9.84 0L3.83 0C3.76 0 3.68 0.01 3.61 0.02C3.58 0.03 3.56 0.04 3.54 0.05C3.49 0.07 3.45 0.08 3.41 0.11C3.38 0.12 3.36 0.14 3.33 0.16C3.3 0.19 3.26 0.21 3.23 0.24C3.21 0.26 3.19 0.29 3.17 0.31C3.14 0.34 3.12 0.36 3.1 0.4L0.13 5.04C0.12 5.06 0.11 5.08 0.1 5.1C0.09 5.12 0.08 5.13 0.07 5.15C0.06 5.16 0.06 5.18 0.05 5.2C0.04 5.24 0.03 5.28 0.02 5.33C0.01 5.36 0 5.4 0 5.43C-0.01 5.48 -0.01 5.52 0 5.56C0 5.6 0 5.63 0.01 5.67C0.02 5.71 0.03 5.75 0.04 5.79C0.05 5.83 0.07 5.86 0.08 5.9C0.09 5.91 0.09 5.92 0.1 5.93C0.11 5.96 0.13 5.98 0.15 6.01C0.17 6.03 0.18 6.06 0.2 6.08L9.18 16.69C9.33 16.87 9.57 17 9.8 16.99C9.8 16.99 9.8 16.99 9.8 16.99C9.82 17 9.83 17 9.84 17C9.84 17 9.84 17 9.84 17C9.84 17 9.84 17 9.84 17C9.92 17 10 16.98 10.07 16.96C10.09 16.95 10.11 16.95 10.14 16.94C10.19 16.92 10.24 16.89 10.29 16.86C10.31 16.86 10.33 16.85 10.34 16.83C10.4 16.79 10.46 16.75 10.51 16.69L19.58 6.08C19.59 6.07 19.6 6.05 19.61 6.03C19.62 6.02 19.64 6 19.65 5.98C19.67 5.96 19.67 5.94 19.68 5.91C19.7 5.89 19.71 5.86 19.73 5.83C19.74 5.78 19.75 5.74 19.76 5.69C19.77 5.66 19.78 5.63 19.78 5.6C19.79 5.55 19.78 5.5 19.78 5.45C19.78 5.43 19.78 5.4 19.78 5.37Z" fill="url(#paint_radial_23_551_0)" fill-opacity="1.000000" fill-rule="evenodd"/>
</svg>
