<svg width="93.000000" height="90.000000" viewBox="0 0 93 90" fill="none" xmlns="http://www.w3.org/2000/svg" xmlns:xlink="http://www.w3.org/1999/xlink">
	<desc>
			Created with Pixso.
	</desc>
	<defs>
		<clipPath id="clip7_779">
			<rect id="user (10) 1" rx="-0.500000" width="24.000000" height="24.000000" transform="translate(48.500000 33.500000)" fill="white" fill-opacity="0"/>
		</clipPath>
	</defs>
	<ellipse id="Ellipse 3" cx="46.500000" cy="45.000000" rx="46.500000" ry="45.000000" fill="#9F51FF" fill-opacity="1.000000"/>
	<rect id="user (10) 1" rx="-0.500000" width="24.000000" height="24.000000" transform="translate(48.500000 33.500000)" fill="#FFFFFF" fill-opacity="0"/>
	<g clip-path="url(#clip7_779)">
		<path id="Vector" d="M66.75 39.25C66.75 42.7 63.95 45.5 60.5 45.5C57.04 45.5 54.25 42.7 54.25 39.25C54.25 35.79 57.04 33 60.5 33C63.95 33 66.75 35.79 66.75 39.25Z" fill="#FFFFFF" fill-opacity="1.000000" fill-rule="evenodd"/>
		<path id="Vector" d="M60.5 47.58C55.32 47.58 51.13 51.78 51.12 56.95C51.12 57.53 51.59 58 52.16 58L68.83 58C69.4 58 69.87 57.53 69.87 56.95C69.86 51.78 65.67 47.58 60.5 47.58Z" fill="#FFFFFF" fill-opacity="1.000000" fill-rule="nonzero"/>
	</g>
</svg>
