<svg width="93.000000" height="90.000000" viewBox="0 0 93 90" fill="none" xmlns="http://www.w3.org/2000/svg" xmlns:xlink="http://www.w3.org/1999/xlink">
	<desc>
			Created with Pixso.
	</desc>
	<defs>
		<clipPath id="clip125_348">
			<rect id="money-wings (1) 1" rx="-0.500000" width="24.000000" height="24.000000" transform="translate(50.500000 31.500000)" fill="white" fill-opacity="0"/>
		</clipPath>
	</defs>
	<ellipse id="Ellipse 3" cx="46.500000" cy="45.000000" rx="46.500000" ry="45.000000" fill="#9F51FF" fill-opacity="1.000000"/>
	<rect id="money-wings (1) 1" rx="-0.500000" width="24.000000" height="24.000000" transform="translate(50.500000 31.500000)" fill="#FFFFFF" fill-opacity="0"/>
	<g clip-path="url(#clip125_348)">
		<path id="Vector" d="M64.06 43.76C64.06 44.62 63.36 45.32 62.5 45.32C61.63 45.32 60.93 44.62 60.93 43.76C60.93 42.9 61.63 42.2 62.5 42.2C63.36 42.2 64.06 42.9 64.06 43.76ZM52.44 38.16C52.21 38.5 52.08 38.9 52.08 39.33C52.08 40.22 52.65 40.98 53.45 41.28C54.72 40.02 56.03 39.2 57.2 38.47C58.65 37.57 59.77 36.86 60.66 35.45C60.05 34.33 59.73 33.34 59.68 33.17C59.27 31.85 58.13 31 56.77 31L52.08 31C50.93 31 50 31.93 50 33.08C50 33.99 50.59 34.76 51.41 35.04C51.18 35.38 51.04 35.77 51.04 36.2C51.04 37.11 51.62 37.88 52.44 38.16ZM72.82 46.31C72.69 46.27 72.31 46.14 71.81 45.93C70.39 47.63 68.81 48.62 67.42 49.49C66.36 50.15 65.42 50.75 64.58 51.63L64.58 51.83C64.58 52.98 65.51 53.91 66.66 53.91C67.09 53.91 67.5 53.78 67.83 53.55C68.11 54.36 68.88 54.95 69.79 54.95C70.22 54.95 70.62 54.81 70.95 54.58C71.23 55.4 72 55.99 72.91 55.99C74.06 55.99 75 55.06 75 53.91L75 49.22C75 47.86 74.14 46.72 72.82 46.31L72.82 46.31ZM72.63 40.15C71.31 44.33 68.55 46.33 66.32 47.72C64.64 48.77 62.71 49.9 61.21 52.72C60.51 54.02 58.83 54.39 57.69 53.45L52.8 49.4C51.97 48.72 51.73 47.57 52.18 46.6C53.91 42.87 56.37 41.45 58.31 40.24C60.1 39.11 62.21 37.34 63.47 34.43C64.06 33.07 65.77 32.63 66.91 33.57L71.87 37.68C72.59 38.27 72.91 39.25 72.63 40.15ZM66.14 43.76C66.14 41.75 64.51 40.12 62.5 40.12C60.48 40.12 58.85 41.75 58.85 43.76C58.85 45.77 60.48 47.41 62.5 47.41C64.51 47.41 66.14 45.77 66.14 43.76Z" fill="#FFFFFF" fill-opacity="1.000000" fill-rule="nonzero"/>
	</g>
</svg>
