<svg width="561" height="167" viewBox="0 0 561 167" fill="none" xmlns="http://www.w3.org/2000/svg">
<path d="M117.059 134.94C115.926 134.94 114.792 134.883 113.659 134.77C112.526 134.657 111.336 134.487 110.089 134.26C102.382 132.787 95.4122 130.237 89.1789 126.61C82.9456 122.983 77.3356 118.733 72.3489 113.86C67.4756 109.1 62.9989 104.057 58.9189 98.7299C54.9522 93.4032 51.3256 88.3032 48.0389 83.4299C44.7522 78.4432 41.6922 74.0799 38.8589 70.3399C38.6322 69.7732 38.3489 69.6032 38.0089 69.8299C37.7822 70.0565 37.6689 70.1699 37.6689 70.1699C35.1756 74.9299 32.8522 79.4065 30.6989 83.5999C28.6589 87.6799 27.1289 90.9666 26.1089 93.4599C25.2022 95.9532 24.7489 97.7099 24.7489 98.7299C24.7489 100.317 25.3722 101.11 26.6189 101.11C28.2056 101.11 29.9056 100.033 31.7189 97.8799C32.9656 96.4065 34.0989 95.0465 35.1189 93.7999C36.2522 92.4399 37.2156 91.8732 38.0089 92.0999C38.1222 92.2132 38.1789 92.3832 38.1789 92.6099C38.1789 93.1766 37.7822 93.9699 36.9889 94.9899C36.1956 95.8966 35.7422 96.4065 35.6289 96.5199C34.8356 97.6532 33.7589 99.1832 32.3989 101.11C31.1522 103.037 29.7922 104.737 28.3189 106.21C26.9589 107.797 25.4856 108.59 23.8989 108.59C23.6722 108.59 22.9922 108.477 21.8589 108.25C20.8389 108.023 19.8189 107.74 18.7989 107.4C17.8922 107.06 17.3822 106.663 17.2689 106.21C17.0422 104.057 17.5522 101.053 18.7989 97.1999C20.1589 93.2332 21.9722 88.8699 24.2389 84.1099C26.5056 79.3499 28.8289 74.7032 31.2089 70.1699C29.3956 69.7166 28.0922 69.3199 27.2989 68.9799C26.1656 68.1865 25.5989 67.1099 25.5989 65.7499C25.5989 64.6165 26.0522 63.5965 26.9589 62.6899C27.8656 61.7832 29.2256 61.3299 31.0389 61.3299C31.6056 61.3299 32.2856 61.4432 33.0789 61.6699C33.8722 61.8965 34.4956 62.2932 34.9489 62.8599C36.8756 59.4599 38.5756 56.3432 40.0489 53.5099C41.6356 50.6765 42.7689 48.4665 43.4489 46.8799C44.1289 45.6332 44.5822 44.6132 44.8089 43.8199C45.0356 42.9132 45.1489 42.2332 45.1489 41.7799C45.1489 41.0999 45.0356 40.5332 44.8089 40.0799C45.0356 38.7199 45.8289 36.9065 47.1889 34.6399C48.6622 32.3732 50.4756 30.1065 52.6289 27.8399C54.7822 25.5732 57.1056 23.7032 59.5989 22.2299C62.0922 20.6432 64.4156 19.8499 66.5689 19.8499C67.2489 19.8499 68.2689 20.0765 69.6289 20.5299C71.1022 20.8699 72.4622 21.4365 73.7089 22.2299C75.0689 23.0232 75.9189 24.1565 76.2589 25.6299C76.3722 25.9699 76.4289 26.3099 76.4289 26.6499C76.4289 26.9899 76.3156 27.1599 76.0889 27.1599C75.8622 27.1599 75.5222 27.1032 75.0689 26.9899C74.7289 26.7632 74.4456 26.6499 74.2189 26.6499C71.0456 26.6499 67.4756 28.5765 63.5089 32.4299C59.6556 36.1699 55.6889 40.9865 51.6089 46.8799C47.6422 52.7732 43.9022 58.8932 40.3889 65.2399C40.9556 65.3532 41.5789 65.5232 42.2589 65.7499C43.0522 65.8632 43.9589 65.9199 44.9789 65.9199C45.4322 65.9199 45.8289 65.9199 46.1689 65.9199C46.6222 65.9199 47.0756 65.8632 47.5289 65.7499C54.7822 64.9565 62.1489 63.5399 69.6289 61.4999C77.2222 59.4599 84.3056 56.7965 90.8789 53.5099C97.4522 50.2232 102.892 46.3699 107.199 41.9499C111.166 37.7565 113.149 33.4499 113.149 29.0299C113.149 25.7432 111.902 22.6832 109.409 19.8499C106.916 17.0165 103.006 14.8632 97.6789 13.3899C94.5056 12.4832 90.8789 11.8032 86.7989 11.3499C82.8322 10.8965 78.5256 10.6699 73.8789 10.6699C66.6256 10.6699 59.1456 11.2932 51.4389 12.5399C43.8456 13.7865 36.7056 15.7132 30.0189 18.3199C23.3322 20.8132 17.7222 23.9865 13.1889 27.8399C8.65555 31.6932 5.93555 36.2832 5.02889 41.6099C4.68889 44.3299 5.19889 46.4832 6.55889 48.0699C7.91889 49.6565 9.56222 50.9032 11.4889 51.8099C13.5289 52.6032 15.1156 53.3399 16.2489 54.0199C17.0422 54.6999 17.4389 55.2665 17.4389 55.7199C17.4389 56.5132 16.7022 56.7965 15.2289 56.5699C13.6422 56.2299 11.6589 55.4365 9.27889 54.1899C7.01222 52.9432 4.97222 51.2432 3.15889 49.0899C1.45889 46.8232 0.608887 44.2165 0.608887 41.2699C0.608887 40.8165 0.608887 40.3632 0.608887 39.9099C0.72222 39.4565 0.835553 39.0032 0.948887 38.5499C0.948887 38.4366 0.89222 38.0965 0.778886 37.5299C0.778886 36.8499 0.778886 36.2832 0.778886 35.8299C1.45889 32.3165 3.15889 29.0299 5.87889 25.9699C8.71222 22.7965 11.8856 20.0199 15.3989 17.6399C19.0256 15.1465 22.3689 13.1632 25.4289 11.6899C30.7556 9.08321 37.1589 7.04321 44.6389 5.56987C52.1189 3.98321 59.9389 3.18987 68.0989 3.18987C73.0856 3.18987 78.0156 3.52988 82.8889 4.20988C87.8756 4.88988 92.6922 5.96655 97.3389 7.43988C103.799 9.59321 108.786 12.9365 112.299 17.4699C115.926 21.8899 117.569 26.5365 117.229 31.4099C116.889 36.0565 115.246 40.2499 112.299 43.9899C109.466 47.7299 105.782 51.0165 101.249 53.8499C96.8289 56.5699 91.8989 58.9499 86.4589 60.9899C81.1322 62.9165 75.7489 64.5032 70.3089 65.7499C65.8889 66.6565 61.2422 67.3932 56.3689 67.9599C51.4956 68.5266 46.9056 68.9232 42.5989 69.1499C47.4722 75.1565 52.2889 81.2199 57.0489 87.3399C61.9222 93.3465 67.0789 99.0132 72.5189 104.34C78.0722 109.667 84.1356 114.2 90.7089 117.94C97.2822 121.793 104.706 124.513 112.979 126.1C114.679 126.44 116.436 126.61 118.249 126.61C121.196 126.61 124.086 126.157 126.919 125.25C129.866 124.343 132.302 122.927 134.229 121C136.156 119.073 137.119 116.523 137.119 113.35C137.119 112.783 137.062 112.217 136.949 111.65C136.949 111.083 136.892 110.517 136.779 109.95C136.779 109.723 136.722 109.553 136.609 109.44C136.609 109.327 136.609 109.213 136.609 109.1C136.609 108.08 137.006 107.57 137.799 107.57C138.932 107.57 139.669 108.42 140.009 110.12C140.349 111.82 140.519 113.407 140.519 114.88C140.519 116.58 140.349 118.167 140.009 119.64C139.782 121.113 139.442 122.473 138.989 123.72C137.969 126.893 135.362 129.557 131.169 131.71C127.089 133.863 122.386 134.94 117.059 134.94Z" fill="white"/>
<path d="M106.703 105.87C103.53 105.87 100.753 105.133 98.3735 103.66C94.4068 101.28 92.4235 96.9732 92.4235 90.7399C92.4235 88.1332 92.8768 85.1299 93.7835 81.7299C94.5768 78.8965 95.9935 75.8365 98.0335 72.5499C100.073 69.1499 102.453 65.9199 105.174 62.8599C108.007 59.7999 111.067 57.3065 114.353 55.3799C117.64 53.4532 120.927 52.4899 124.214 52.4899C125.574 52.4899 126.764 52.6599 127.784 52.9999C129.143 53.4532 130.277 54.3032 131.184 55.5499C132.204 56.6832 132.714 58.1565 132.714 59.9699C132.714 61.8965 132.204 62.9732 131.184 63.1999C130.277 63.4265 129.824 63.1999 129.824 62.5199C129.824 62.2932 129.824 62.0665 129.824 61.8399C129.937 61.6132 129.993 61.4432 129.993 61.3299C129.993 60.4232 129.71 59.6299 129.143 58.9499C128.69 58.1565 127.784 57.7599 126.424 57.7599C124.61 57.7599 122.343 58.7232 119.623 60.6499C117.017 62.5765 114.297 65.1832 111.464 68.4699C108.743 71.6432 106.307 75.1565 104.153 79.0099C102.113 82.8632 100.753 86.7166 100.073 90.5699C99.9602 91.1366 99.8468 91.7032 99.7335 92.2699C99.7335 92.7232 99.7335 93.2332 99.7335 93.7999C99.7335 96.4065 100.3 98.6166 101.433 100.43C102.68 102.13 104.607 102.98 107.213 102.98C110.387 102.98 113.447 101.79 116.394 99.4099C119.34 96.9165 121.947 93.9699 124.214 90.5699C126.593 87.1699 128.35 84.1665 129.483 81.5599C130.39 79.5199 131.014 77.7632 131.354 76.2899C131.693 74.8165 131.863 73.5699 131.863 72.5499C131.863 71.6432 131.75 70.8499 131.523 70.1699C131.41 69.4899 131.24 68.9232 131.014 68.4699C130.787 67.7899 130.673 67.2799 130.673 66.9399C130.673 66.0332 131.013 65.2965 131.693 64.7299C132.487 64.1632 133.28 63.8799 134.074 63.8799C134.754 63.8799 135.49 64.1065 136.283 64.5599C137.19 64.7866 138.437 64.9565 140.023 65.0699C141.61 65.1832 143.31 65.2399 145.124 65.2399C147.05 65.2399 148.977 65.1832 150.904 65.0699C152.943 64.9565 154.7 64.7299 156.173 64.3899C156.4 64.2766 156.74 64.2199 157.193 64.2199C157.987 64.2199 158.383 64.4465 158.383 64.8999C158.383 65.3532 157.987 65.7499 157.193 66.0899C153.227 67.9032 149.657 68.8665 146.484 68.9799C143.424 69.0932 140.76 69.1499 138.493 69.1499C138.72 71.9832 138.097 75.0432 136.623 78.3299C135.15 81.5032 133.62 84.3365 132.033 86.8299C130.107 89.6632 127.897 92.5532 125.403 95.4999C122.91 98.4465 120.133 100.94 117.073 102.98C114.013 104.907 110.557 105.87 106.703 105.87Z" fill="white"/>
<path d="M145.903 166.39C144.543 166.05 143.353 165.71 142.333 165.37C140.18 164.237 138.65 162.933 137.743 161.46C136.836 160.1 136.383 158.627 136.383 157.04C136.383 154.433 137.29 151.6 139.103 148.54C140.803 145.593 143.07 142.533 145.903 139.36C148.736 135.96 152.306 132.503 156.613 128.99C161.033 125.477 165.623 122.077 170.383 118.79C175.143 115.617 179.336 112.84 182.963 110.46C184.89 106.493 186.873 102.243 188.913 97.7099C191.066 93.1766 193.106 88.8132 195.033 84.6199C196.96 80.3132 198.603 76.4032 199.963 72.8899C201.436 69.3765 202.513 66.6565 203.193 64.7299C201.38 66.8832 199.283 69.6032 196.903 72.8899C194.523 76.0632 191.916 79.4632 189.083 83.0899C186.25 86.6032 183.303 89.9465 180.243 93.1199C177.296 96.2932 174.236 98.8999 171.063 100.94C167.89 102.867 164.773 103.83 161.713 103.83C157.18 103.83 154.006 102.697 152.193 100.43C150.493 98.0499 149.643 95.2732 149.643 92.0999C149.643 89.8332 149.926 87.5666 150.493 85.2999C151.173 83.0332 152.023 80.9365 153.043 79.0099C153.723 77.6499 154.8 75.8365 156.273 73.5699C157.746 71.3032 159.446 68.9799 161.373 66.5999C163.3 64.2199 165.226 62.2365 167.153 60.6499C169.193 59.0632 171.12 58.2699 172.933 58.2699C175.086 58.2699 176.73 59.0632 177.863 60.6499C178.996 62.1232 179.11 63.1432 178.203 63.7099C176.39 64.9566 174.123 66.8832 171.403 69.4899C168.796 71.9832 166.19 74.8732 163.583 78.1599C162.903 79.0666 162.053 80.4832 161.033 82.4099C160.126 84.3365 159.276 86.4332 158.483 88.6999C157.69 90.8532 157.293 92.8365 157.293 94.6499C157.293 95.4432 157.406 96.2365 157.633 97.0299C157.86 97.7099 158.256 98.2199 158.823 98.5599C159.73 99.2399 160.75 99.5799 161.883 99.5799C163.47 99.5799 165.226 99.0699 167.153 98.0499C169.193 97.0299 171.12 95.7266 172.933 94.1399C179.28 88.0199 184.946 81.6166 189.933 74.9299C194.92 68.2432 200.19 61.6132 205.743 55.0399C206.083 53.9065 207.046 53.3399 208.633 53.3399C210.446 53.3399 212.316 53.9065 214.243 55.0399C216.283 56.0599 217.133 56.9099 216.793 57.5899C215.773 59.8565 214.413 62.8599 212.713 66.5999C211.126 70.3399 209.37 74.3632 207.443 78.6699C205.516 82.9765 203.59 87.2832 201.663 91.5899C199.736 95.7832 197.98 99.5799 196.393 102.98C197.753 102.3 200.19 100.6 203.703 97.8799C207.216 95.1599 211.07 91.8732 215.263 88.0199C219.456 84.0532 223.253 79.9732 226.653 75.7799C227.333 75.0999 227.843 74.7599 228.183 74.7599C228.863 74.7599 229.203 75.2132 229.203 76.1199C229.203 76.9132 228.863 77.8199 228.183 78.8399C226.483 81.1065 224.103 83.7699 221.043 86.8299C218.096 89.8899 214.866 93.0066 211.353 96.1799C207.953 99.2399 204.61 102.017 201.323 104.51C198.036 107.117 195.203 109.1 192.823 110.46C189.31 117.94 185.91 124.967 182.623 131.54C179.336 138.227 176.333 143.61 173.613 147.69C171.8 150.523 169.59 153.413 166.983 156.36C164.376 159.307 161.543 161.743 158.483 163.67C155.423 165.71 152.193 166.73 148.793 166.73C148.34 166.73 147.886 166.673 147.433 166.56C146.98 166.56 146.47 166.503 145.903 166.39ZM146.413 162.65C147.32 162.65 148.396 162.367 149.643 161.8C151.003 161.233 152.42 160.327 153.893 159.08C158.2 155.567 161.826 151.43 164.773 146.67C167.72 142.023 170.326 137.093 172.593 131.88C174.973 126.667 177.353 121.68 179.733 116.92C175.313 120.207 170.326 124.06 164.773 128.48C159.22 133.013 154.176 137.49 149.643 141.91C146.923 144.63 144.94 147.293 143.693 149.9C142.446 152.62 141.823 155 141.823 157.04C141.823 160.78 143.353 162.65 146.413 162.65Z" fill="white"/>
<path d="M271.03 105.7C269.103 105.7 267.29 105.247 265.59 104.34C264.003 103.433 262.813 101.733 262.02 99.2399C261.68 98.2199 261.51 96.8032 261.51 94.9899C261.51 92.4966 261.85 89.7199 262.53 86.6599C263.21 83.5999 263.946 80.9932 264.74 78.8399C264.173 79.0665 263.096 80.0865 261.51 81.8999C260.036 83.5999 258.166 85.6965 255.9 88.1899C253.746 90.5699 251.31 93.0066 248.59 95.4999C245.983 97.8799 243.263 99.8632 240.43 101.45C237.596 103.037 234.82 103.83 232.1 103.83C230.286 103.83 228.36 103.32 226.32 102.3C224.28 101.167 222.636 99.7499 221.39 98.0499C219.69 95.7832 218.84 93.4599 218.84 91.0799C218.84 88.0199 219.86 84.8465 221.9 81.5599C224.053 78.2732 226.773 75.0999 230.06 72.0399C233.46 68.8665 237.03 66.0332 240.77 63.5399C244.623 60.9332 248.25 58.7799 251.65 57.0799C255.163 55.2665 257.996 54.0765 260.15 53.5099C262.416 52.8299 264.966 52.4899 267.8 52.4899C269.386 52.4899 271.03 52.7165 272.73 53.1699C274.43 53.5099 275.846 54.1332 276.98 55.0399C277.886 55.4932 278.623 56.1165 279.19 56.9099C279.756 57.7032 280.04 58.5532 280.04 59.4599C280.04 60.3665 279.643 60.6499 278.85 60.3099C277.943 58.9499 276.696 58.0999 275.11 57.7599C273.636 57.3065 272.106 57.0799 270.52 57.0799C265.986 57.0799 261 58.5532 255.56 61.4999C250.12 64.4465 245.246 67.9032 240.94 71.8699C239.58 73.0032 237.71 74.9865 235.33 77.8199C233.063 80.5399 230.966 83.5432 229.04 86.8299C227.113 90.1165 226.15 93.1199 226.15 95.8399C226.15 97.3132 226.546 98.6166 227.34 99.7499C227.793 100.543 228.53 100.94 229.55 100.94C231.136 100.94 233.233 100.09 235.84 98.3899C238.56 96.6899 241.336 94.6499 244.17 92.2699C247.003 89.7766 249.553 87.3966 251.82 85.1299C254.2 82.8632 255.9 81.2199 256.92 80.1999C257.486 79.6332 258.563 78.4999 260.15 76.7999C261.85 74.9865 263.663 73.0599 265.59 71.0199C267.516 68.9799 269.216 67.2232 270.69 65.7499C272.276 64.2765 273.296 63.5399 273.75 63.5399C274.316 63.5399 275.223 63.7099 276.47 64.0499C277.83 64.2766 278.963 64.6732 279.87 65.2399C280.776 65.8065 280.946 66.5432 280.38 67.4499C277.433 71.7565 275.053 76.2899 273.24 81.0499C271.54 85.6965 270.52 89.3799 270.18 92.0999C270.066 92.5532 270.01 93.0066 270.01 93.4599C270.01 93.7999 270.01 94.1965 270.01 94.6499C270.01 99.1832 271.596 101.45 274.77 101.45C276.47 101.45 278.736 100.43 281.57 98.3899C284.403 96.3499 287.293 93.9132 290.24 91.0799C293.186 88.2465 295.85 85.5266 298.23 82.9199C300.723 80.1999 302.423 78.1599 303.33 76.7999C303.67 76.4599 304.01 76.2899 304.35 76.2899C304.803 76.2899 305.2 76.5165 305.54 76.9699C305.88 77.3099 305.88 77.7632 305.54 78.3299C304.293 80.3699 302.48 82.8065 300.1 85.6399C297.72 88.4732 295.056 91.3065 292.11 94.1399C289.163 96.9732 286.273 99.4099 283.44 101.45C281.966 102.583 280.096 103.547 277.83 104.34C275.563 105.247 273.296 105.7 271.03 105.7Z" fill="white"/>
<path d="M311.511 105.7C306.751 105.7 303.408 104.51 301.481 102.13C299.668 99.7499 298.761 96.8032 298.761 93.2899C298.761 90.0032 299.498 85.8665 300.971 80.8799C302.558 75.8932 304.598 70.5099 307.091 64.7299C309.584 58.9499 312.248 53.2265 315.081 47.5599C318.028 41.7799 320.918 36.5099 323.751 31.7499C326.698 26.8765 329.248 22.9665 331.401 20.0199C333.554 17.1865 335.878 14.3532 338.371 11.5199C340.864 8.68655 343.641 6.30655 346.701 4.37988C349.761 2.45321 353.218 1.48988 357.071 1.48988C359.678 1.48988 361.888 2.22654 363.701 3.69988C365.628 5.05988 366.591 7.15655 366.591 9.98988C366.591 11.1232 366.364 12.4265 365.911 13.8999C365.571 15.3732 364.948 16.9032 364.041 18.4899C357.128 30.5032 348.854 41.6099 339.221 51.8099C329.701 62.0099 319.614 71.4732 308.961 80.1999C308.508 81.8999 308.054 83.4299 307.601 84.7899C307.261 86.1499 306.978 87.2265 306.751 88.0199C306.638 88.5865 306.581 89.2099 306.581 89.8899C306.581 90.4566 306.581 91.0232 306.581 91.5899C306.581 94.3099 307.034 96.6899 307.941 98.7299C308.848 100.77 310.378 101.79 312.531 101.79C314.571 101.79 317.064 100.827 320.011 98.8999C323.071 96.8599 326.131 94.4232 329.191 91.5899C332.251 88.6432 335.028 85.8099 337.521 83.0899C340.014 80.3699 341.771 78.2732 342.791 76.7999C343.131 76.4599 343.471 76.2899 343.811 76.2899C344.264 76.2899 344.604 76.5165 344.831 76.9699C345.171 77.4232 345.171 77.9899 344.831 78.6699C343.698 80.5965 341.884 82.9765 339.391 85.8099C336.898 88.6432 334.121 91.5332 331.061 94.4799C328.001 97.3132 325.054 99.8065 322.221 101.96C318.708 104.453 315.138 105.7 311.511 105.7ZM311.341 73.3999C315.648 70.4532 320.124 66.6565 324.771 62.0099C329.418 57.2499 333.951 52.0932 338.371 46.5399C342.904 40.9865 346.984 35.4899 350.611 30.0499C354.351 24.6099 357.354 19.6799 359.621 15.2599C360.301 14.0132 360.754 12.9365 360.981 12.0299C361.321 11.0099 361.491 10.1032 361.491 9.30988C361.491 7.15654 360.584 6.07988 358.771 6.07988C357.184 6.07988 355.201 6.92988 352.821 8.62988C346.701 13.3899 341.034 19.5099 335.821 26.9899C330.608 34.3565 325.961 42.1199 321.881 50.2799C317.801 58.4399 314.288 66.1465 311.341 73.3999Z" fill="white"/>
<path d="M434.655 131.88C429.895 131.88 424.965 131.2 419.865 129.84C414.878 128.593 410.175 127.063 405.755 125.25C401.335 123.55 397.481 122.133 394.195 121C388.188 118.847 382.578 116.75 377.365 114.71C372.151 112.67 368.468 111.423 366.315 110.97C355.321 108.137 347.558 106.72 343.025 106.72C342.231 107.287 341.495 107.74 340.815 108.08C340.135 108.533 339.398 108.817 338.605 108.93C338.265 109.043 337.755 109.1 337.075 109.1C335.035 109.1 334.015 108.42 334.015 107.06C334.015 106.267 334.638 105.473 335.885 104.68C336.791 104.227 337.811 104 338.945 104C340.191 103.887 341.438 103.773 342.685 103.66C345.291 101.393 347.728 98.5032 349.995 94.9899C352.375 91.4765 354.075 88.8132 355.095 86.9999C356.001 85.4132 356.851 83.8832 357.645 82.4099C358.551 80.8232 359.458 79.2932 360.365 77.8199C358.551 78.2732 356.681 78.7265 354.755 79.1799C352.828 79.5199 350.958 79.6899 349.145 79.6899C345.858 79.6899 342.855 79.0099 340.135 77.6499C337.528 76.2899 336.225 73.7966 336.225 70.1699C336.225 67.7899 337.245 65.5799 339.285 63.5399C341.438 61.4999 343.648 60.4799 345.915 60.4799C347.275 60.4799 347.955 61.0465 347.955 62.1799C347.955 62.8599 347.445 63.1999 346.425 63.1999C345.178 63.1999 344.045 63.9366 343.025 65.4099C342.005 66.8832 341.495 68.4132 341.495 69.9999C341.495 71.1332 341.835 72.2665 342.515 73.3999C343.308 74.4199 344.611 75.0432 346.425 75.2699C348.125 75.6099 349.938 75.7799 351.865 75.7799C355.151 75.7799 358.495 75.3266 361.895 74.4199C363.481 71.2466 364.955 68.1299 366.315 65.0699C367.788 61.8965 369.205 58.7799 370.565 55.7199C373.398 49.4865 376.288 43.4232 379.235 37.5299C382.181 31.6365 385.071 26.3665 387.905 21.7199C390.738 17.0732 393.288 13.6165 395.555 11.3499C399.861 7.26988 404.168 4.37988 408.475 2.67988C412.895 0.979882 416.861 0.129883 420.375 0.129883C421.055 0.129883 421.735 0.186549 422.415 0.299881C423.095 0.299881 423.718 0.356547 424.285 0.469878C428.478 1.14988 431.425 2.62321 433.125 4.88988C434.825 7.04321 435.675 9.64988 435.675 12.7099C435.675 14.2965 435.505 15.9399 435.165 17.6399C433.691 24.7799 430.688 31.4665 426.155 37.6999C421.735 43.9332 416.351 49.5999 410.005 54.6999C403.658 59.6865 396.858 63.9366 389.605 67.4499C382.465 70.9632 375.495 73.5132 368.695 75.0999C367.221 77.5932 365.635 80.0865 363.935 82.5799C362.348 84.9599 360.591 87.3399 358.665 89.7199C357.531 91.4199 355.888 93.6299 353.735 96.3499C351.581 98.9566 349.371 101.393 347.105 103.66C348.691 103.773 350.391 103.887 352.205 104C354.131 104.227 356.171 104.51 358.325 104.85C367.731 106.323 377.138 108.477 386.545 111.31C396.065 114.257 405.471 116.92 414.765 119.3C417.371 119.98 421.055 120.83 425.815 121.85C430.688 122.87 435.221 123.38 439.415 123.38C443.495 123.38 446.611 122.643 448.765 121.17C450.465 120.15 451.315 118.733 451.315 116.92C451.315 115.56 450.691 114.427 449.445 113.52C448.765 112.953 448.425 112.5 448.425 112.16C448.425 111.027 449.105 110.857 450.465 111.65C451.938 112.67 452.958 113.86 453.525 115.22C454.205 116.58 454.545 117.997 454.545 119.47C454.545 121.17 454.205 122.7 453.525 124.06C452.958 125.533 452.221 126.553 451.315 127.12C446.668 130.293 441.115 131.88 434.655 131.88ZM371.245 71.1899C383.825 65.7499 394.875 59.1199 404.395 51.2999C413.915 43.4799 421.451 33.1665 427.005 20.3599C428.818 16.3932 429.725 12.9365 429.725 9.98988C429.725 7.60988 428.988 5.73988 427.515 4.37988C426.721 3.35988 425.418 2.84988 423.605 2.84988C419.865 2.84988 416.011 4.15321 412.045 6.75988C408.645 9.25321 405.415 12.5399 402.355 16.6199C399.408 20.6999 396.631 25.0065 394.025 29.5399C391.418 34.0732 389.095 38.3799 387.055 42.4599C385.128 46.4265 383.485 49.5999 382.125 51.9799C381.218 53.7932 379.801 56.4565 377.875 59.9699C376.061 63.4832 373.851 67.2232 371.245 71.1899Z" fill="white"/>
<path d="M455.923 105.7C453.883 105.7 452.07 105.247 450.483 104.34C448.897 103.433 447.707 101.733 446.913 99.2399C446.8 98.6732 446.63 98.0499 446.403 97.3699C446.29 96.5765 446.233 95.7832 446.233 94.9899C446.233 92.2699 446.573 89.2099 447.253 85.8099C448.047 82.4099 448.897 79.5765 449.803 77.3099C449.35 77.6499 448.557 78.7832 447.423 80.7099C446.29 82.6366 444.873 84.9032 443.173 87.5099C441.473 90.0032 439.547 92.5532 437.393 95.1599C435.353 97.6532 433.087 99.7499 430.593 101.45C428.213 103.037 425.663 103.83 422.943 103.83C421.13 103.83 418.92 103.32 416.313 102.3C413.82 101.28 412.007 99.8632 410.873 98.0499C409.74 96.2365 409.173 93.9699 409.173 91.2499C409.173 87.9632 409.91 84.3932 411.383 80.5399C412.857 76.5732 414.727 72.8899 416.993 69.4899C417.787 68.3566 418.693 66.9966 419.713 65.4099C420.733 63.8232 421.753 62.4632 422.773 61.3299C423.793 60.0832 424.53 59.4032 424.983 59.2899C426.343 58.8365 427.93 58.6099 429.743 58.6099C431.67 58.6099 433.087 58.8365 433.993 59.2899C434.787 59.6299 435.183 60.0265 435.183 60.4799C435.183 61.0465 434.73 61.7832 433.823 62.6899C432.577 63.8232 430.877 65.5232 428.723 67.7899C426.57 70.0565 424.417 72.7766 422.263 75.9499C420.223 79.1232 418.523 82.6366 417.163 86.4899C416.03 89.5499 415.463 92.2132 415.463 94.4799C415.463 98.4465 417.05 100.43 420.223 100.43C422.943 100.43 425.833 99.2966 428.893 97.0299C431.953 94.7632 434.9 91.9865 437.733 88.6999C440.68 85.4132 443.287 82.1832 445.553 79.0099C447.933 75.7232 449.747 73.1165 450.993 71.1899C452.127 69.6032 453.373 67.5632 454.733 65.0699C456.207 62.5765 457.623 60.1399 458.983 57.7599C460.343 55.3799 461.42 53.6232 462.213 52.4899C463.007 52.4899 464.197 52.6599 465.783 52.9999C467.483 53.2265 468.9 53.6799 470.033 54.3599C471.28 55.0399 471.62 55.8899 471.053 56.9099C470.373 58.0432 469.297 59.7999 467.823 62.1799C466.463 64.5599 465.047 66.9966 463.573 69.4899C462.213 71.8699 461.137 73.7965 460.343 75.2699C457.623 80.4832 455.867 86.0932 455.073 92.0999C454.96 92.5532 454.903 93.0066 454.903 93.4599C454.903 93.7999 454.903 94.1965 454.903 94.6499C454.903 99.1832 456.433 101.45 459.493 101.45C461.193 101.45 463.46 100.43 466.293 98.3899C469.127 96.3499 472.017 93.9132 474.963 91.0799C478.023 88.2465 480.743 85.5266 483.123 82.9199C485.617 80.1999 487.317 78.1599 488.223 76.7999C488.45 76.4599 488.79 76.2899 489.243 76.2899C489.697 76.2899 490.037 76.4599 490.263 76.7999C490.603 77.1399 490.603 77.5932 490.263 78.1599C489.243 80.0865 487.487 82.5232 484.993 85.4699C482.613 88.3032 479.95 91.1932 477.003 94.1399C474.057 96.9732 471.167 99.4099 468.333 101.45C466.86 102.583 464.99 103.547 462.723 104.34C460.457 105.247 458.19 105.7 455.923 105.7Z" fill="white"/>
<path d="M475.7 136.64C474.68 136.64 474.17 136.017 474.17 134.77C474.17 130.577 475.417 126.1 477.91 121.34C480.29 116.58 483.237 111.82 486.75 107.06C490.377 102.413 493.947 98.1632 497.46 94.3099C501.087 90.3432 504.09 87.1132 506.47 84.6199C508.964 82.0132 510.21 80.4832 510.21 80.0299C510.21 78.8966 509.87 77.3099 509.19 75.2699C508.51 73.1165 507.604 71.1899 506.47 69.4899C505.337 67.6766 504.09 66.7699 502.73 66.7699C501.03 66.7699 499.104 68.1299 496.95 70.8499C494.91 73.4566 492.417 76.4599 489.47 79.8599C488.79 80.6532 488.167 81.0499 487.6 81.0499C486.92 81.0499 486.58 80.6532 486.58 79.8599C486.58 79.1799 486.807 78.6132 487.26 78.1599C488.28 76.9132 489.64 75.1565 491.34 72.8899C493.04 70.5099 494.854 68.1299 496.78 65.7499C498.707 63.2565 500.577 61.2165 502.39 59.6299C504.317 57.9299 505.96 57.0799 507.32 57.0799C510.154 57.0799 512.194 57.9299 513.44 59.6299C514.687 61.3299 515.65 63.4832 516.33 66.0899C517.01 68.5832 517.804 71.2465 518.71 74.0799C522.904 70.1132 526.984 66.4865 530.95 63.1999C534.917 59.7999 539.337 56.5699 544.21 53.5099C545.004 53.0565 545.854 52.8299 546.76 52.8299C548.12 52.8299 549.31 53.2265 550.33 54.0199C551.35 54.8132 551.86 55.8332 551.86 57.0799C551.86 58.2132 551.294 58.8365 550.16 58.9499C549.14 58.9499 548.347 59.0632 547.78 59.2899C543.587 60.8765 540.3 62.4632 537.92 64.0499C535.54 65.6366 533.444 67.1665 531.63 68.6399L519.56 78.3299C519.56 79.5765 520.184 81.8432 521.43 85.1299C522.677 88.4165 524.094 91.5899 525.68 94.6499C527.834 98.6165 530.271 100.6 532.99 100.6C534.804 100.6 536.617 99.9765 538.43 98.7299C540.244 97.4832 542.057 95.9532 543.87 94.1399C546.59 91.0799 549.254 87.8499 551.86 84.4499C554.581 80.9365 556.507 78.3866 557.64 76.7999C557.98 76.4599 558.377 76.2899 558.83 76.2899C559.397 76.2899 559.794 76.5165 560.02 76.9699C560.36 77.4232 560.247 77.9899 559.68 78.6699C559 79.5766 557.81 81.1632 556.11 83.4299C554.524 85.6965 552.654 88.1332 550.5 90.7399C548.46 93.3465 546.364 95.7265 544.21 97.8799C541.15 100.713 538.43 102.64 536.05 103.66C533.784 104.68 531.687 105.19 529.76 105.19C529.307 105.19 528.797 105.133 528.23 105.02C527.664 105.02 527.097 104.963 526.53 104.85C524.037 104.283 521.827 102.81 519.9 100.43C518.087 98.0499 516.5 95.3866 515.14 92.4399C513.894 89.4932 512.874 86.9999 512.08 84.9599C510.04 87.1132 507.547 89.7766 504.6 92.9499C501.767 96.0099 498.764 99.4099 495.59 103.15C492.417 106.777 489.414 110.517 486.58 114.37C483.86 118.223 481.594 121.907 479.78 125.42C478.08 128.933 477.174 132.05 477.06 134.77C476.947 136.017 476.494 136.64 475.7 136.64Z" fill="white"/>
</svg>
