<svg width="30" height="30" viewBox="0 0 30 30" fill="none" xmlns="http://www.w3.org/2000/svg">
<g clip-path="url(#clip0_7_925)">
<path d="M4.99998 0H8.74998C11.5114 0 13.75 2.23857 13.75 4.99998V8.74998C13.75 11.5114 11.5114 13.75 8.74998 13.75H4.99998C2.23857 13.75 0 11.5114 0 8.74998V4.99998C0 2.23857 2.23857 0 4.99998 0Z" fill="white"/>
<path d="M21.25 0H25C27.7614 0 30 2.23857 30 4.99998V8.74998C30 11.5114 27.7614 13.75 25 13.75H21.25C18.4886 13.75 16.2501 11.5114 16.2501 8.74998V4.99998C16.25 2.23857 18.4886 0 21.25 0Z" fill="white"/>
<path d="M4.99998 16.25H8.74998C11.5114 16.25 13.75 18.4886 13.75 21.25V25C13.75 27.7614 11.5114 30 8.74998 30H4.99998C2.23857 30 0 27.7614 0 25V21.25C0 18.4886 2.23857 16.25 4.99998 16.25Z" fill="white"/>
<path d="M21.25 16.25H25C27.7614 16.25 30 18.4886 30 21.25V25C30 27.7614 27.7614 30 25 30H21.25C18.4886 30 16.2501 27.7614 16.2501 25V21.25C16.25 18.4886 18.4886 16.25 21.25 16.25Z" fill="white"/>
</g>
<defs>
<clipPath id="clip0_7_925">
<rect width="30" height="30" fill="white"/>
</clipPath>
</defs>
</svg>
