<svg width="30" height="30" viewBox="0 0 30 30" fill="none" xmlns="http://www.w3.org/2000/svg">
<g clip-path="url(#clip0_23_374)">
<path d="M16.875 15.32C16.875 16.3538 16.0338 17.195 15 17.195C13.9663 17.195 13.125 16.3538 13.125 15.32C13.125 14.2862 13.9663 13.445 15 13.445C16.0338 13.445 16.875 14.2862 16.875 15.32ZM2.93 8.6C2.65875 9 2.5 9.48125 2.5 10C2.5 11.075 3.18625 11.9862 4.14125 12.3388C5.67125 10.8325 7.245 9.8475 8.64875 8.97C10.3813 7.8875 11.7288 7.03875 12.8038 5.3425C12.0712 4.00375 11.6838 2.81375 11.6213 2.61125C11.1313 1.02375 9.75875 0 8.125 0H2.5C1.12125 0 0 1.12125 0 2.5C0 3.5975 0.715 4.52125 1.69875 4.85625C1.425 5.25625 1.25 5.72875 1.25 6.25C1.25 7.34 1.955 8.25875 2.93 8.6ZM27.3887 18.3787C27.2337 18.3312 26.7762 18.1787 26.1737 17.9275C24.4712 19.96 22.5825 21.1475 20.915 22.1887C19.6413 22.985 18.5125 23.7025 17.5 24.76V24.9988C17.5 26.3775 18.6213 27.4988 20 27.4988C20.5175 27.4988 21 27.34 21.4 27.0688C21.7413 28.0438 22.66 28.7488 23.75 28.7488C24.2712 28.7488 24.7437 28.5737 25.1437 28.3C25.48 29.285 26.4037 29.9988 27.5 29.9988C28.8787 29.9988 30 28.8775 30 27.4988V21.8738C30 20.24 28.9762 18.8675 27.3887 18.3775V18.3787ZM27.1625 10.985C25.58 16.005 22.2625 18.4 19.59 20.07C17.575 21.3288 15.2587 22.69 13.455 26.0725C12.6237 27.6313 10.5988 28.0763 9.23625 26.95L3.3625 22.0913C2.37375 21.2725 2.0825 19.8875 2.6225 18.7225C4.695 14.255 7.645 12.5463 9.9725 11.0913C12.1287 9.74375 14.6537 7.61375 16.17 4.12C16.8787 2.4875 18.9287 1.96 20.3 3.09375L26.2525 8.0175C27.12 8.735 27.5012 9.91125 27.1625 10.985ZM19.375 15.32C19.375 12.9075 17.4125 10.945 15 10.945C12.5875 10.945 10.625 12.9075 10.625 15.32C10.625 17.7325 12.5875 19.695 15 19.695C17.4125 19.695 19.375 17.7325 19.375 15.32Z" fill="white"/>
</g>
<defs>
<clipPath id="clip0_23_374">
<rect width="30" height="30" fill="white"/>
</clipPath>
</defs>
</svg>
