<svg width="30" height="30" viewBox="0 0 30 30" fill="none" xmlns="http://www.w3.org/2000/svg">
<g clip-path="url(#clip0_23_368)">
<path d="M30 25C30 27.0675 28.3175 28.75 26.25 28.75C26.25 29.44 25.69 30 25 30C24.31 30 23.75 29.44 23.75 28.75H23.415C22.08 28.75 20.8362 28.0325 20.1675 26.8762C19.8225 26.2787 20.0262 25.515 20.6237 25.1687C21.22 24.8225 21.9862 25.0275 22.3312 25.625C22.5537 26.01 22.97 26.25 23.415 26.25H26.25C26.9387 26.25 27.5 25.69 27.5 25C27.5 24.5275 27.1612 24.1275 26.695 24.05L22.8925 23.4162C21.2162 23.1375 19.9987 21.7 19.9987 20C19.9987 17.9325 21.6812 16.25 23.7487 16.25C23.7487 15.56 24.3087 15 24.9987 15C25.6887 15 26.2487 15.56 26.2487 16.25H26.5837C27.9187 16.25 29.1625 16.9675 29.8312 18.1237C30.1762 18.7212 29.9725 19.485 29.375 19.8312C28.7787 20.1775 28.0137 19.9725 27.6675 19.375C27.445 18.99 27.0287 18.75 26.5837 18.75H23.7487C23.06 18.75 22.4987 19.31 22.4987 20C22.4987 20.4725 22.8375 20.8725 23.3037 20.95L27.1062 21.5837C28.7825 21.8625 30 23.3 30 25ZM29.8987 9.22124C29.6062 8.13249 29.1687 7.08624 28.6012 6.11249C26.8912 3.17874 24.0975 1.03374 20.8237 0.139985C20.6075 0.0812354 20.125 0.0474854 20.125 0.0474854C19.9525 0.0474854 19.21 0.0474854 18.6212 0.523735C17.7575 1.20374 17.6212 1.97749 17.6087 2.03749C17.5637 2.22624 17.5412 2.42124 17.54 2.61499V8.64874C17.54 10.7762 19.2637 12.5 21.3912 12.5H27.45C28.2537 12.5025 29.01 12.1212 29.4862 11.4725C29.8387 10.9975 30.0187 10.4187 30 9.82749C29.99 9.62249 29.9562 9.41874 29.9 9.21999L29.8987 9.22124ZM18.0037 28.1275C17.1225 26.6025 17.4375 24.7087 18.6575 23.5412C17.9262 22.5475 17.5 21.32 17.5 20C17.5 17.9637 18.4887 16.1637 20.0012 15.0212H17.4912C16.1087 15.0212 14.9887 13.9012 14.9887 12.5187V6.60374C14.9925 5.43749 14.4525 4.33499 13.53 3.62124C12.655 2.92874 11.5075 2.68124 10.425 2.95249C3.06499 4.77999 -1.41876 12.2262 0.407491 19.5837C1.69374 24.7675 5.87124 28.735 11.115 29.7525C13.745 30.2562 16.35 29.9675 18.6837 29.06C18.4337 28.77 18.1987 28.465 18.0037 28.1275Z" fill="white"/>
</g>
<defs>
<clipPath id="clip0_23_368">
<rect width="30" height="30" fill="white"/>
</clipPath>
</defs>
</svg>
