<svg width="30" height="30" viewBox="0 0 30 30" fill="none" xmlns="http://www.w3.org/2000/svg">
<g clip-path="url(#clip0_23_380)">
<path d="M6.87501 13.75C9.28751 13.75 11.25 11.7875 11.25 9.375C11.25 6.9625 9.28751 5 6.87501 5C4.46251 5 2.50001 6.9625 2.50001 9.375C2.50001 11.7875 4.46251 13.75 6.87501 13.75ZM19.375 8.75C21.7875 8.75 23.75 6.7875 23.75 4.375C23.75 1.9625 21.7875 0 19.375 0C16.9625 0 15 1.9625 15 4.375C15 6.7875 16.9625 8.75 19.375 8.75ZM22.5 15C18.3575 15 15 18.3575 15 22.5C15 26.6425 18.3575 30 22.5 30C26.6425 30 30 26.6425 30 22.5C30 18.3575 26.6425 15 22.5 15ZM27.1038 22.14L23.725 25.4075C23.16 25.965 22.41 26.2463 21.6588 26.2463C20.9075 26.2463 20.155 25.965 19.58 25.4037L17.8875 23.7387C17.3938 23.255 17.3875 22.4637 17.87 21.9712C18.3525 21.4775 19.1438 21.47 19.6375 21.9538L21.33 23.6175C21.51 23.795 21.805 23.7913 21.9825 23.615L25.3738 20.335C25.87 19.8587 26.6625 19.8725 27.1413 20.3713C27.6188 20.8688 27.6025 21.66 27.105 22.1388L27.1038 22.14ZM13.1275 19.0075C12.7225 20.095 12.5 21.2712 12.5 22.5C12.4888 22.5 12.4775 22.5 12.4663 22.5H1.28376C0.928761 22.5 0.588761 22.3487 0.352511 22.0837C0.116261 21.8188 0.00251092 21.4662 0.0412609 21.1125C0.427511 17.6287 3.36501 15 6.87501 15C9.63251 15 12.0363 16.6225 13.1275 19.0075ZM14.5325 16.4575C14.05 15.7763 13.48 15.1625 12.8388 14.635C13.7725 11.9113 16.3488 10 19.3413 10C21.5963 10 23.6138 11.085 24.8725 12.7838C24.1125 12.5988 23.3175 12.5 22.5013 12.5C19.2488 12.5 16.3588 14.0525 14.5325 16.4575Z" fill="white"/>
</g>
<defs>
<clipPath id="clip0_23_380">
<rect width="30" height="30" fill="white"/>
</clipPath>
</defs>
</svg>
