<svg width="30" height="30" viewBox="0 0 30 30" fill="none" xmlns="http://www.w3.org/2000/svg">
<g clip-path="url(#clip0_23_400)">
<path d="M30 18.7498C30 19.5211 29.7 20.2461 29.1525 20.7923L26.5625 23.3836C26.3188 23.6273 25.9987 23.7498 25.6787 23.7498C25.3587 23.7498 25.0387 23.6273 24.795 23.3836C24.3062 22.8948 24.3062 22.1048 24.795 21.6161L26.41 19.9998H18.75C18.0588 19.9998 17.5 19.4411 17.5 18.7498C17.5 18.0586 18.0588 17.4998 18.75 17.4998H26.41L24.795 15.8836C24.3062 15.3948 24.3062 14.6048 24.795 14.1161C25.2838 13.6273 26.0737 13.6273 26.5625 14.1161L29.1537 16.7086C29.7 17.2536 30 17.9786 30 18.7498ZM17.5 13.7498V7.49983C17.5 6.12108 16.3787 4.99983 15 4.99983V27.4986H16.25C16.94 27.4986 17.5 26.9386 17.5 26.2486V23.7486C17.5 23.0573 18.0588 22.4986 18.75 22.4986C19.4412 22.4986 20 23.0573 20 23.7486V26.2486C20 28.3161 18.3175 29.9986 16.25 29.9986H3.75C1.6825 29.9986 0 28.3161 0 26.2486V7.02608C0 4.05733 2.1125 1.47983 5.02375 0.897332L9.02 0.0985824C10.4963 -0.196418 12.0087 0.181082 13.1712 1.13483C13.64 1.51858 14.0025 1.99108 14.2987 2.49983H15C17.7575 2.49983 20 4.74233 20 7.49983V13.7498C20 14.4411 19.4412 14.9998 18.75 14.9998C18.0588 14.9998 17.5 14.4411 17.5 13.7498ZM11.25 15.6248C11.25 14.5898 10.41 13.7498 9.375 13.7498C8.34 13.7498 7.5 14.5898 7.5 15.6248C7.5 16.6598 8.34 17.4998 9.375 17.4998C10.41 17.4998 11.25 16.6598 11.25 15.6248Z" fill="white"/>
</g>
<defs>
<clipPath id="clip0_23_400">
<rect width="30" height="30" fill="white"/>
</clipPath>
</defs>
</svg>
