<svg width="17.999985" height="18.000000" viewBox="0 0 18 18" fill="none" xmlns="http://www.w3.org/2000/svg" xmlns:xlink="http://www.w3.org/1999/xlink">
	<desc>
			Created with Pixso.
	</desc>
	<defs>
		<clipPath id="clip49_50">
			<rect id="next (3) 1" rx="-0.017578" width="17.964832" height="17.964832" transform="translate(0.017578 0.017578)" fill="white" fill-opacity="0"/>
		</clipPath>
	</defs>
	<rect id="next (3) 1" rx="-0.017578" width="17.964832" height="17.964832" transform="translate(0.017578 0.017578)" fill="#FFFFFF" fill-opacity="0"/>
	<g clip-path="url(#clip49_50)">
		<path id="Vector" d="M17.03 8.46L11.78 3.21C11.63 3.08 11.44 3 11.25 3C11.05 3.01 10.86 3.08 10.72 3.22C10.58 3.36 10.51 3.55 10.5 3.75C10.5 3.94 10.58 4.13 10.71 4.28L14.68 8.25L1.5 8.25C1.3 8.25 1.11 8.32 0.96 8.46C0.82 8.61 0.75 8.8 0.75 9C0.75 9.19 0.82 9.38 0.96 9.53C1.11 9.67 1.3 9.75 1.5 9.75L14.68 9.75L10.71 13.71C10.64 13.78 10.59 13.87 10.55 13.96C10.51 14.05 10.49 14.15 10.49 14.25C10.48 14.35 10.5 14.45 10.54 14.54C10.58 14.63 10.64 14.71 10.71 14.78C10.78 14.86 10.86 14.91 10.95 14.95C11.04 14.99 11.14 15.01 11.24 15C11.34 15 11.44 14.98 11.53 14.94C11.62 14.9 11.71 14.85 11.78 14.78L17.03 9.53C17.17 9.38 17.24 9.19 17.24 9C17.24 8.8 17.17 8.61 17.03 8.46Z" fill="#FFFFFF" fill-opacity="1.000000" fill-rule="nonzero"/>
	</g>
</svg>
