<svg width="93.000000" height="90.000000" viewBox="0 0 93 90" fill="none" xmlns="http://www.w3.org/2000/svg" xmlns:xlink="http://www.w3.org/1999/xlink">
	<desc>
			Created with Pixso.
	</desc>
	<defs>
		<clipPath id="clip125_293">
			<rect id="add (4) 1" rx="-0.500000" width="24.000000" height="24.000000" transform="translate(50.500000 33.500000)" fill="white" fill-opacity="0"/>
		</clipPath>
	</defs>
	<ellipse id="Ellipse 3" cx="46.500000" cy="45.000000" rx="46.500000" ry="45.000000" fill="#9F51FF" fill-opacity="1.000000"/>
	<rect id="add (4) 1" rx="-0.500000" width="24.000000" height="24.000000" transform="translate(50.500000 33.500000)" fill="#FFFFFF" fill-opacity="0"/>
	<g clip-path="url(#clip125_293)">
		<path id="Vector" d="M62.5 33C60.02 33 57.61 33.73 55.55 35.1C53.5 36.48 51.89 38.43 50.95 40.71C50 43 49.75 45.51 50.24 47.93C50.72 50.36 51.91 52.59 53.66 54.33C55.4 56.08 57.63 57.27 60.06 57.75C62.48 58.24 64.99 57.99 67.28 57.04C69.56 56.1 71.51 54.5 72.89 52.44C74.26 50.38 75 47.97 75 45.5C74.99 42.18 73.67 39 71.33 36.66C68.99 34.32 65.81 33 62.5 33ZM66.66 46.54L63.54 46.54L63.54 49.66C63.54 49.94 63.43 50.2 63.23 50.4C63.04 50.59 62.77 50.7 62.5 50.7C62.22 50.7 61.95 50.59 61.76 50.4C61.56 50.2 61.45 49.94 61.45 49.66L61.45 46.54L58.33 46.54C58.05 46.54 57.79 46.43 57.59 46.23C57.4 46.04 57.29 45.77 57.29 45.5C57.29 45.22 57.4 44.95 57.59 44.76C57.79 44.56 58.05 44.45 58.33 44.45L61.45 44.45L61.45 41.33C61.45 41.05 61.56 40.79 61.76 40.59C61.95 40.4 62.22 40.29 62.5 40.29C62.77 40.29 63.04 40.4 63.23 40.59C63.43 40.79 63.54 41.05 63.54 41.33L63.54 44.45L66.66 44.45C66.94 44.45 67.2 44.56 67.4 44.76C67.59 44.95 67.7 45.22 67.7 45.5C67.7 45.77 67.59 46.04 67.4 46.23C67.2 46.43 66.94 46.54 66.66 46.54Z" fill="#FFFFFF" fill-opacity="1.000000" fill-rule="nonzero"/>
	</g>
</svg>
