<svg width="43" height="43" viewBox="0 0 43 43" fill="none" xmlns="http://www.w3.org/2000/svg">
<path d="M12.6666 27.6649C12.6666 26.9508 12.1711 26.5249 11.2968 26.5249C10.9398 26.5249 10.698 26.5601 10.5715 26.5938V28.885C10.7213 28.9187 10.9054 28.93 11.1591 28.93C12.091 28.93 12.6666 28.4592 12.6666 27.6649Z" fill="#9F51FF"/>
<path d="M18.0789 26.549C17.6873 26.549 17.4343 26.5828 17.2847 26.6178V31.6921C17.4344 31.7273 17.6762 31.7273 17.8948 31.7273C19.4831 31.7385 20.519 30.8642 20.519 29.0116C20.5302 27.4007 19.5863 26.549 18.0789 26.549Z" fill="#9F51FF"/>
<path d="M28.1344 0H10.8638C8.34078 0 6.28727 2.05493 6.28727 4.57656V21.4999H5.84028C4.82195 21.4999 3.99609 22.325 3.99609 23.3442V34.5284C3.99609 35.5476 4.82186 36.3725 5.84028 36.3725H6.28727V38.4233C6.28727 40.9477 8.34078 42.9999 10.8638 42.9999H34.4288C36.9502 42.9999 39.004 40.9477 39.004 38.4233V10.8315L28.1344 0ZM8.83415 25.3625C9.37462 25.2712 10.1343 25.2024 11.2046 25.2024C12.2863 25.2024 13.0572 25.4088 13.5752 25.8235C14.07 26.2144 14.4039 26.8594 14.4039 27.6186C14.4039 28.3776 14.1509 29.0228 13.6905 29.4599C13.0917 30.0236 12.2062 30.2766 11.1703 30.2766C10.9397 30.2766 10.7331 30.2652 10.5715 30.2428V33.0161H8.83415V25.3625ZM34.4288 40.1972H10.8638C9.8869 40.1972 9.09136 39.4016 9.09136 38.4233V36.3725H31.0587C32.0772 36.3725 32.903 35.5476 32.903 34.5284V23.3442C32.903 22.325 32.0772 21.4999 31.0587 21.4999H9.09136V4.57656C9.09136 3.60105 9.88699 2.80551 10.8638 2.80551L27.0858 2.78857V8.78479C27.0858 10.5362 28.5069 11.9586 30.2597 11.9586L36.1336 11.9418L36.1997 38.4233C36.1997 39.4016 35.4056 40.1972 34.4288 40.1972ZM15.5241 32.981V25.3625C16.1685 25.26 17.0084 25.2024 17.8947 25.2024C19.3677 25.2024 20.3229 25.4666 21.0713 26.0302C21.8768 26.629 22.3827 27.5834 22.3827 28.9538C22.3827 30.4381 21.8422 31.4628 21.0937 32.0953C20.277 32.7741 19.0339 33.0961 17.5151 33.0961C16.6056 33.0961 15.9612 33.0385 15.5241 32.981ZM28.0839 28.4704V29.897H25.2986V33.0161H23.5381V25.26H28.2792V26.6978H25.2986V28.4704H28.0839Z" fill="#9F51FF"/>
</svg>
