<svg width="18.000000" height="18.000000" viewBox="0 0 18 18" fill="none" xmlns="http://www.w3.org/2000/svg" xmlns:xlink="http://www.w3.org/1999/xlink">
	<desc>
			Created with Pixso.
	</desc>
	<defs>
		<clipPath id="clip45_718">
			<rect id="refer 1" rx="-0.500000" width="17.000000" height="17.000000" transform="translate(0.500000 0.500000)" fill="white" fill-opacity="0"/>
		</clipPath>
	</defs>
	<rect id="refer 1" rx="-0.500000" width="17.000000" height="17.000000" transform="translate(0.500000 0.500000)" fill="#FFFFFF" fill-opacity="0"/>
	<g clip-path="url(#clip45_718)">
		<path id="Vector" d="M8.25 8.25C8.25 7 7.24 6 6 6L2.25 6C1 6 0 7 0 8.25L0 9.75L8.25 9.75L8.25 8.25ZM4.12 5.25C5.57 5.25 6.75 4.07 6.75 2.62C6.75 1.17 5.57 0 4.12 0C2.67 0 1.5 1.17 1.5 2.62C1.5 4.07 2.67 5.25 4.12 5.25ZM18 15.75L18 18L8.25 18L8.25 15.75C8.25 14.5 9.25 13.5 10.5 13.5L15.75 13.5C16.99 13.5 18 14.5 18 15.75ZM13.12 12.75C14.98 12.75 16.5 11.23 16.5 9.37C16.5 7.51 14.98 6 13.12 6C11.26 6 9.75 7.51 9.75 9.37C9.75 11.23 11.26 12.75 13.12 12.75ZM6.31 13.94C6.89 14.52 6.89 15.47 6.31 16.05L4.43 17.93L3.37 16.87L4.49 15.75L2.24 15.75C1 15.75 -0.01 14.74 -0.01 13.5L-0.01 11.25L1.49 11.25L1.49 13.5C1.49 13.91 1.83 14.25 2.24 14.25L4.5 14.25L3.37 13.12L4.43 12.06L6.31 13.94L6.31 13.94Z" fill="#FFFFFF" fill-opacity="1.000000" fill-rule="nonzero"/>
	</g>
</svg>
