<svg width="16.000000" height="16.000000" viewBox="0 0 16 16" fill="none" xmlns="http://www.w3.org/2000/svg" xmlns:xlink="http://www.w3.org/1999/xlink">
	<desc>
			Created with Pixso.
	</desc>
	<defs>
		<clipPath id="clip43_642">
			<rect id="free-icon-telegram-2111708 2" rx="-0.027344" width="15.945312" height="15.945312" transform="translate(0.027344 0.027344)" fill="white" fill-opacity="0"/>
		</clipPath>
	</defs>
	<rect id="free-icon-telegram-2111708 2" rx="-0.027344" width="15.945312" height="15.945312" transform="translate(0.027344 0.027344)" fill="#FFFFFF" fill-opacity="0"/>
	<g clip-path="url(#clip43_642)">
		<path id="Vector" d="M6.27 10.12L6.01 13.84C6.39 13.84 6.55 13.68 6.75 13.48L8.52 11.78L12.2 14.48C12.88 14.85 13.35 14.66 13.53 13.86L15.95 2.54L15.95 2.54C16.16 1.54 15.59 1.15 14.93 1.4L0.74 6.83C-0.23 7.21 -0.22 7.75 0.57 7.99L4.2 9.12L12.63 3.85C13.03 3.59 13.39 3.73 13.09 3.99L6.27 10.12Z" fill="#FFFFFF" fill-opacity="1.000000" fill-rule="nonzero"/>
	</g>
</svg>
