<svg width="75" height="75" viewBox="0 0 75 75" fill="none" xmlns="http://www.w3.org/2000/svg">
<circle cx="37.5" cy="37.5" r="36.75" fill="url(#paint0_radial_23_326)" stroke="white" stroke-width="1.5"/>
<path d="M35.4682 47H32.8182V33.6125L23.9557 47H21.3057V29H23.9557V42.375L32.8182 29H35.4682V47ZM45.0195 47V44.4875C44.0945 44.6458 43.207 44.6083 42.357 44.375C41.5154 44.1417 40.7612 43.725 40.0945 43.125C39.4362 42.525 38.9154 41.75 38.532 40.8C38.1487 39.85 37.957 38.7417 37.957 37.475C37.957 36.2 38.1487 35.0875 38.532 34.1375C38.9154 33.1792 39.4362 32.3958 40.0945 31.7875C40.7612 31.1792 41.5154 30.7542 42.357 30.5125C43.207 30.2625 44.0945 30.2167 45.0195 30.375V29H47.6195V30.375C48.5445 30.2167 49.4279 30.2625 50.2695 30.5125C51.1195 30.7542 51.8737 31.1792 52.532 31.7875C53.1987 32.3958 53.7237 33.1792 54.107 34.1375C54.4987 35.0875 54.6945 36.2 54.6945 37.475C54.6945 38.7417 54.4987 39.85 54.107 40.8C53.7237 41.75 53.1987 42.525 52.532 43.125C51.8737 43.725 51.1195 44.1417 50.2695 44.375C49.4279 44.6083 48.5445 44.6458 47.6195 44.4875V47H45.0195ZM45.0195 42.0625V32.7625C44.2695 32.6458 43.6154 32.6958 43.057 32.9125C42.507 33.1292 42.0529 33.4667 41.6945 33.925C41.3362 34.375 41.0695 34.9083 40.8945 35.525C40.7195 36.1333 40.632 36.7833 40.632 37.475C40.632 38.1583 40.7195 38.8042 40.8945 39.4125C41.0695 40.0125 41.3362 40.5333 41.6945 40.975C42.0529 41.4083 42.507 41.725 43.057 41.925C43.6154 42.125 44.2695 42.1708 45.0195 42.0625ZM47.6195 42.0625C48.3695 42.1708 49.0195 42.125 49.5695 41.925C50.1195 41.725 50.5737 41.4083 50.932 40.975C51.2987 40.5417 51.5695 40.0292 51.7445 39.4375C51.9279 38.8375 52.0195 38.2042 52.0195 37.5375C52.0195 36.8708 51.9279 36.2292 51.7445 35.6125C51.5695 34.9958 51.2987 34.4542 50.932 33.9875C50.5737 33.5125 50.1195 33.1625 49.5695 32.9375C49.0195 32.7042 48.3695 32.6458 47.6195 32.7625V42.0625Z" fill="white"/>
<defs>
<radialGradient id="paint0_radial_23_326" cx="0" cy="0" r="1" gradientUnits="userSpaceOnUse" gradientTransform="translate(37.5 37.5) rotate(90) scale(54.1667)">
<stop stop-color="#3839D5"/>
<stop offset="1" stop-color="#8910E9"/>
</radialGradient>
</defs>
</svg>
