<svg width="93.000000" height="90.000000" viewBox="0 0 93 90" fill="none" xmlns="http://www.w3.org/2000/svg" xmlns:xlink="http://www.w3.org/1999/xlink">
	<desc>
			Created with Pixso.
	</desc>
	<defs>
		<clipPath id="clip73_408">
			<rect id="user-trust (2) 1" rx="-0.500000" width="19.000000" height="19.000000" transform="translate(50.500000 35.500000)" fill="white" fill-opacity="0"/>
		</clipPath>
	</defs>
	<ellipse id="Ellipse 3" cx="46.500000" cy="45.000000" rx="46.500000" ry="45.000000" fill="#9F51FF" fill-opacity="1.000000"/>
	<rect id="user-trust (2) 1" rx="-0.500000" width="19.000000" height="19.000000" transform="translate(50.500000 35.500000)" fill="#FFFFFF" fill-opacity="0"/>
	<g clip-path="url(#clip73_408)">
		<path id="Vector" d="M52.5 40C52.5 37.24 54.74 35 57.5 35C60.25 35 62.5 37.24 62.5 40C62.5 42.75 60.25 45 57.5 45C54.74 45 52.5 42.75 52.5 40ZM70 50C70 52.76 67.76 55 65 55C62.23 55 60 52.76 60 50C60 47.23 62.23 45 65 45C67.76 45 70 47.23 70 50ZM68.09 48.58C67.77 48.24 67.24 48.24 66.91 48.55L64.65 50.74C64.53 50.86 64.33 50.86 64.21 50.74L63.09 49.63C62.76 49.31 62.23 49.31 61.91 49.64C61.59 49.97 61.59 50.5 61.92 50.82L63.05 51.93C63.43 52.31 63.93 52.49 64.43 52.49C64.93 52.49 65.43 52.31 65.81 51.93L68.06 49.76C68.4 49.44 68.41 48.91 68.09 48.58L68.09 48.58ZM58.33 50C58.33 48.86 58.62 47.78 59.12 46.84C58.6 46.73 58.05 46.66 57.5 46.66C53.37 46.66 50 50.02 50 54.15C49.99 54.61 50.36 55 50.83 55L60.6 55C59.21 53.77 58.33 51.99 58.33 50Z" fill="#FFFFFF" fill-opacity="1.000000" fill-rule="nonzero"/>
	</g>
</svg>
