<svg width="18.767090" height="18.767090" viewBox="0 0 18.7671 18.7671" fill="none" xmlns="http://www.w3.org/2000/svg" xmlns:xlink="http://www.w3.org/1999/xlink">
	<desc>
			Created with Pixso.
	</desc>
	<defs>
		<clipPath id="clip125_202">
			<rect id="eye-crossed" rx="-0.018327" width="18.730360" height="18.730360" transform="translate(0.018327 0.018327)" fill="white" fill-opacity="0"/>
		</clipPath>
	</defs>
	<rect id="eye-crossed" rx="-0.018327" width="18.730360" height="18.730360" transform="translate(0.018327 0.018327)" fill="#FFFFFF" fill-opacity="0"/>
	<g clip-path="url(#clip125_202)">
		<path id="Vector" d="M18.19 7.35C17.48 6.2 16.59 5.16 15.55 4.3L17.74 2.11C18.04 1.8 18.03 1.3 17.72 1C17.42 0.71 16.94 0.71 16.64 1L14.26 3.39C12.78 2.51 11.09 2.05 9.38 2.06C4.54 2.06 1.78 5.38 0.57 7.35C-0.2 8.59 -0.2 10.15 0.57 11.39C1.27 12.54 2.16 13.57 3.2 14.44L1.01 16.63C0.7 16.93 0.7 17.43 1 17.74C1.3 18.05 1.79 18.06 2.1 17.76C2.11 17.75 2.11 17.74 2.12 17.74L4.51 15.35C5.98 16.23 7.66 16.68 9.38 16.67C14.22 16.67 16.98 13.36 18.19 11.39C18.95 10.15 18.95 8.59 18.19 7.35ZM4.69 9.37C4.68 6.78 6.78 4.68 9.36 4.68C10.34 4.68 11.3 4.98 12.09 5.55L10.96 6.69C10.48 6.4 9.93 6.25 9.38 6.24C7.65 6.24 6.25 7.64 6.25 9.37C6.25 9.93 6.41 10.47 6.7 10.95L5.56 12.08C4.99 11.29 4.69 10.34 4.69 9.37ZM9.38 14.06C8.41 14.06 7.46 13.75 6.67 13.19L7.8 12.05C8.28 12.34 8.82 12.49 9.38 12.5C11.11 12.5 12.51 11.1 12.51 9.37C12.5 8.81 12.35 8.27 12.06 7.79L13.2 6.66C14.7 8.76 14.21 11.68 12.11 13.19C11.31 13.76 10.36 14.06 9.38 14.06Z" fill="#757575" fill-opacity="1.000000" fill-rule="nonzero"/>
	</g>
</svg>
