<svg width="20.000000" height="20.000000" viewBox="0 0 20 20" fill="none" xmlns="http://www.w3.org/2000/svg" xmlns:xlink="http://www.w3.org/1999/xlink">
	<desc>
			Created with Pixso.
	</desc>
	<defs>
		<clipPath id="clip34_191">
			<rect id="wallet-arrow 1" rx="-0.416667" width="19.166666" height="19.166666" transform="translate(0.416667 0.416667)" fill="white" fill-opacity="0"/>
		</clipPath>
	</defs>
	<rect id="wallet-arrow 1" rx="-0.416667" width="19.166666" height="19.166666" transform="translate(0.416667 0.416667)" fill="#FFFFFF" fill-opacity="0"/>
	<g clip-path="url(#clip34_191)">
		<path id="Vector" d="M12.74 3.5C12.41 3.17 12.42 2.64 12.74 2.32L14.58 0.51C15.26 -0.17 16.37 -0.17 17.05 0.51L18.91 2.32C19.24 2.64 19.25 3.16 18.93 3.49C18.76 3.66 18.55 3.75 18.33 3.75C18.12 3.75 17.91 3.67 17.75 3.51L16.66 2.45L16.66 7.5C16.66 7.96 16.29 8.33 15.83 8.33C15.37 8.33 15 7.96 15 7.5L15 2.44L13.92 3.5C13.59 3.83 13.06 3.83 12.74 3.5L12.74 3.5ZM20 9.16L20 17.5C20 18.87 18.87 20 17.5 20L4.16 20C1.86 20 0 18.13 0 15.83L0 7.5C0 6.76 0.19 6.06 0.53 5.46C0.54 5.43 0.56 5.39 0.58 5.36C1.31 4.15 2.64 3.33 4.16 3.33L10 3.33C10.46 3.33 10.83 3.7 10.83 4.16C10.83 4.62 10.46 5 10 5L4.16 5C3.42 5 2.76 5.32 2.3 5.83C2.77 6.35 3.45 6.66 4.16 6.66L13.33 6.66L13.33 7.5C13.33 8.87 14.45 10 15.83 10C17.21 10 18.33 8.87 18.33 7.5L18.33 6.82C19.3 7.16 20 8.08 20 9.16ZM16.66 13.33C16.66 12.64 16.1 12.08 15.41 12.08C14.72 12.08 14.16 12.64 14.16 13.33C14.16 14.02 14.72 14.58 15.41 14.58C16.1 14.58 16.66 14.02 16.66 13.33Z" fill="#FFFFFF" fill-opacity="1.000000" fill-rule="nonzero"/>
	</g>
</svg>
